<?xml version="1.0" encoding="UTF-8"?>
<svg width="111px" height="76px" viewBox="0 0 111 76" version="1.1" xmlns="http://www.w3.org/2000/svg" xmlns:xlink="http://www.w3.org/1999/xlink">
    <!-- Generator: Sketch 53.2 (72643) - https://sketchapp.com -->
    <title>veh-seaplane</title>
    <desc>Created with Sketch.</desc>
    <g id="Page-1" stroke="none" stroke-width="1" fill="none" fill-rule="evenodd">
        <g id="01---Home" transform="translate(-458.000000, -797.000000)" fill="#BD1F1F" fill-rule="nonzero">
            <g id="Group-4" transform="translate(414.000000, 699.000000)">
                <g id="veh-seaplane" transform="translate(44.000000, 98.000000)">
                    <path d="M109.086207,18.99905 L57.4137931,18.99905 L57.4137931,1.899905 C57.4137931,0.849257537 56.5583276,0 55.5,0 C54.4416724,0 53.5862069,0.849257537 53.5862069,1.899905 L53.5862069,18.99905 L1.9137931,18.99905 C0.855465517,18.99905 0,19.8483076 0,20.8989551 C0,21.9496025 0.855465517,22.7988601 1.9137931,22.7988601 L13.4463103,22.7988601 C12.2310517,24.3909805 11.4827586,26.3516824 11.4827586,28.4985751 C11.4827586,33.7366132 15.7753966,37.9981001 21.0517241,37.9981001 C26.3280517,37.9981001 30.6206897,33.7366132 30.6206897,28.4985751 C30.6206897,26.3516824 29.8723966,24.3909805 28.6571379,22.7988601 L43.8162931,22.7988601 C35.973569,28.240188 30.6187759,38.9670516 30.6187759,51.2974351 L30.6187759,58.8970551 C30.6187759,58.919854 30.6283448,58.9426529 30.6283448,58.9654517 C30.6302586,59.0243488 30.645569,59.079446 30.6532241,59.1383431 C30.6761897,59.3150342 30.7202069,59.480326 30.7891034,59.639918 C30.8044138,59.6760162 30.8005862,59.7121144 30.8178103,59.7482126 C30.8312069,59.7748113 30.8560862,59.7881106 30.8694828,59.8147093 C30.9766552,60.0065997 31.1067931,60.1851907 31.2771207,60.3314834 C31.2809483,60.3352832 31.2847759,60.340983 31.2886034,60.3447828 C31.4283103,60.4625769 31.589069,60.5632718 31.7632241,60.639268 C31.8914483,60.6962652 44.9416034,66.420679 54.1488621,75.4509275 C54.2081897,75.5079246 54.2828276,75.5307235 54.3459828,75.580121 C54.4780345,75.680816 54.6081724,75.7891105 54.7651034,75.8537073 C54.9985862,75.9487026 55.2454655,76 55.4942586,76 C55.7430517,76 55.9918448,75.9506025 56.2253276,75.8537073 C56.4607241,75.7568122 56.6731552,75.6181191 56.8492241,75.4414279 C65.8057759,66.5517724 79.0951552,60.6981651 79.2291207,60.6411679 C79.2673966,60.6240688 79.2961034,60.5955702 79.3324655,60.5765712 C79.4185862,60.5328734 79.4970517,60.4815759 79.5755172,60.4245788 C79.6444138,60.3751812 79.7094828,60.3257837 79.7707241,60.2668867 C79.8377069,60.2041898 79.8970345,60.1338933 79.9544483,60.059797 C80.0099483,59.9895005 80.0616207,59.919204 80.1075517,59.8413079 C80.1266897,59.8090095 80.1534828,59.7843108 80.1707069,59.7501125 C80.187931,59.7159142 80.1841034,59.6779161 80.1994138,59.6437178 C80.2683103,59.4841258 80.3142414,59.3169342 80.3372069,59.1421429 C80.3448621,59.0832458 80.3601724,59.0281486 80.3620862,58.9692515 C80.3620862,58.9464527 80.3716552,58.9255537 80.3716552,58.900855 L80.3716552,51.3012349 C80.3716552,38.9708515 75.0187759,28.2439878 67.1741379,22.8026599 L82.3332931,22.8026599 C81.1180345,24.3947803 80.3697414,26.3554822 80.3697414,28.5023749 C80.3697414,33.740413 84.6623793,38.0018999 89.9387069,38.0018999 C95.2150345,38.0018999 99.5076724,33.740413 99.5076724,28.5023749 C99.5076724,26.3554822 98.7593793,24.3947803 97.5441207,22.8026599 L109.086207,22.8026599 C110.144534,22.8026599 111,21.9534023 111,20.9027549 C111,19.8521074 110.144534,18.99905 109.086207,18.99905 L109.086207,18.99905 Z M26.7931034,28.4985751 C26.7931034,31.6410179 24.2171379,34.1982901 21.0517241,34.1982901 C17.8863103,34.1982901 15.3103448,31.6410179 15.3103448,28.4985751 C15.3103448,25.3561322 17.8863103,22.7988601 21.0517241,22.7988601 C24.2171379,22.7988601 26.7931034,25.3561322 26.7931034,28.4985751 L26.7931034,28.4985751 Z M74.1288621,58.8685566 C70.1156379,60.9128544 63.3943966,64.699365 57.4137931,69.7721114 L57.4137931,50.5735713 L74.1288621,58.8685566 L74.1288621,58.8685566 Z M53.5862069,69.7930103 C47.5309655,64.6746663 40.857569,60.9033548 36.8711379,58.8685566 L53.5862069,50.5716714 L53.5862069,69.7930103 L53.5862069,69.7930103 Z M76.5517241,51.2974351 L76.5517241,55.8230088 L56.3554655,45.79911 C56.3382414,45.7915104 56.3191034,45.7953102 56.3037931,45.7877106 C56.0569138,45.6737163 55.7908966,45.59962 55.5,45.59962 C55.2091034,45.59962 54.9430862,45.6737163 54.6962069,45.7877106 C54.6789828,45.7953102 54.6598448,45.7915104 54.6445345,45.79911 L34.4482759,55.8230088 L34.4482759,51.2974351 C34.4482759,35.5833208 43.8928448,22.7988601 55.5,22.7988601 C67.1071552,22.7988601 76.5517241,35.5833208 76.5517241,51.2974351 L76.5517241,51.2974351 Z M95.6896552,28.4985751 C95.6896552,31.6410179 93.1136897,34.1982901 89.9482759,34.1982901 C86.7828621,34.1982901 84.2068966,31.6410179 84.2068966,28.4985751 C84.2068966,25.3561322 86.7828621,22.7988601 89.9482759,22.7988601 C93.1136897,22.7988601 95.6896552,25.3561322 95.6896552,28.4985751 L95.6896552,28.4985751 Z" id="Shape"></path>
                    <path d="M42.2520431,37.0723333 C42.5934157,37.6443333 43.2356591,38 43.9280476,38 L67.0719524,38 C67.7643409,38 68.4065843,37.6461667 68.7479569,37.0723333 C69.0912581,36.4985 69.0835435,35.7945 68.7267416,35.2261667 C65.4460931,29.9993333 60.6244463,27 55.5,27 C50.3755537,27 45.5539069,29.9993333 42.2732584,35.2261667 C41.9164565,35.7945 41.9087419,36.4985 42.2520431,37.0723333 L42.2520431,37.0723333 Z M55.5,30.6666667 C58.2830546,30.6666667 61.0024634,31.972 63.2686374,34.3333333 L47.7294339,34.3333333 C49.9975366,31.972 52.7169454,30.6666667 55.5,30.6666667 L55.5,30.6666667 Z" id="Shape"></path>
                </g>
            </g>
        </g>
    </g>
</svg>