<?xml version="1.0" encoding="UTF-8"?>
<svg width="299px" height="42px" viewBox="0 0 299 42" version="1.1" xmlns="http://www.w3.org/2000/svg" xmlns:xlink="http://www.w3.org/1999/xlink">
    <!-- Generator: Sketch 53.2 (72643) - https://sketchapp.com -->
    <title>Layer1008</title>
    <desc>Created with Sketch.</desc>
    <g id="Page-1" stroke="none" stroke-width="1" fill="none" fill-rule="evenodd">
        <g id="02---Sobre" transform="translate(-567.000000, -735.000000)" fill="#868982">
            <g id="Group" transform="translate(157.000000, 735.000000)">
                <g id="Layer1008" transform="translate(410.000000, 0.397959)">
                    <path d="M43.9913205,4.9030576e-14 C24.9031868,4.9030576e-14 8.33535823,4.43525788 5.68434189e-14,10.9411653 L5.68434189e-14,28.7044508 C1.77297618,27.9429872 3.64237612,27.2053302 5.59724665,26.4932047 L14.4319614,9.93766883 L23.5072867,9.93766883 L28.8878044,20.139107 C31.5496029,19.613811 34.2810708,19.1349204 37.070357,18.7038154 L37.070357,10.1086272 L45.287026,10.1086272 L45.287026,17.6025052 C48.4912755,17.2378169 51.651892,16.9526562 54.7561265,16.7418478 L54.7561265,10.1086272 L62.9727956,10.1086272 L62.9727956,16.3561132 C72.0077198,16.1213257 80.3924571,16.5531208 87.7118644,17.5669679 L87.7118644,10.7215588 C79.2887013,4.33537401 62.8682916,0 43.9913205,0 L43.9913205,4.9030576e-14 Z M79.2951655,14.5349145 C76.6890305,14.4193322 73.9453526,14.392593 71.0777782,14.4624599 L71.0777782,10.1086272 L79.2951655,10.1086272 L79.2951655,14.5349145 Z M15.9736642,23.1870314 C17.6460868,22.7231493 19.3607059,22.2770358 21.1130327,21.8500711 L18.8168185,16.9942314 L15.9736642,23.1870314 Z M79.2951655,30.9310503 L71.0777782,30.9310503 L71.0777782,21.8009055 C68.4515326,21.5976875 65.7457418,21.4500181 62.9727956,21.3582422 L62.9727956,30.9310503 L54.7561265,30.9310503 L54.7561265,21.2557707 C51.6617678,21.2809573 48.5007922,21.3748033 45.287026,21.5409314 L45.287026,30.9310503 L37.070357,30.9310503 L37.070357,22.131264 C34.8012563,22.3467303 32.5578327,22.6068769 30.3449344,22.9030783 L34.5789609,30.9310503 L25.4072119,30.9310503 L22.2142746,24.1796597 C19.7013314,24.6304309 17.2409993,25.1236399 14.8442314,25.6468658 L12.4189134,30.9310503 L3.22920838,30.9310503 L4.72530293,28.127574 C3.10710753,28.5662695 1.52985184,29.0135905 0,29.4671219 L0,30.056247 C8.33535823,36.5621545 24.9031868,41 43.9913205,41 C62.8682916,41 79.2887013,36.6634184 87.7118644,30.2744734 L87.7118644,23.9907601 C85.0515023,23.4721921 82.239412,23.0200407 79.2951655,22.6410341 L79.2951655,30.9310503 Z" id="path152"></path>
                    <g id="Layer1009" transform="translate(100.423729, 28.187500)">
                        <polygon id="path154" points="0.182469734 1.26422768 1.15772057 1.26422768 1.15772057 5.61388839 7.00370157 5.61388839 7.00370157 1.26422768 7.97895241 1.26422768 7.97895241 11.1360759 7.00370157 11.1360759 7.00370157 6.45127679 1.15772057 6.45127679 1.15772057 11.1360759 0.182469734 11.1360759"></polygon>
                        <path d="M16.603142,1.01310268 C19.7915512,1.01310268 22.0073823,3.18848214 22.0073823,6.20015179 C22.0073823,9.21182143 19.7915512,11.3872009 16.603142,11.3872009 C13.4131292,11.3872009 11.1983671,9.21182143 11.1983671,6.20015179 C11.1983671,3.18848214 13.4131292,1.01310268 16.603142,1.01310268 Z M16.603142,10.5509107 C19.3348422,10.5509107 21.0323097,8.65429464 21.0323097,6.20015179 C21.0323097,3.74692411 19.3348422,1.84939286 16.603142,1.84939286 C13.8710854,1.84939286 12.1723706,3.74692411 12.1723706,6.20015179 C12.1723706,8.65429464 13.8710854,10.5509107 16.603142,10.5509107 Z" id="path156"></path>
                        <polygon id="path158" points="27.5433074 2.10051786 23.9705357 2.10051786 23.9705357 1.26422768 32.0929336 1.26422768 32.0929336 2.10051786 28.5187364 2.10051786 28.5187364 11.1360759 27.5433074 11.1360759"></polygon>
                        <polygon id="path160" points="34.7357154 1.26422768 41.1296402 1.26422768 41.1296402 2.10051786 35.7095407 2.10051786 35.7095407 5.61388839 40.788935 5.61388839 40.788935 6.45127679 35.7095407 6.45127679 35.7095407 10.2997857 41.3657461 10.2997857 41.3657461 11.1360759 34.7357154 11.1360759"></polygon>
                        <polygon id="path162" points="44.5243969 1.26422768 45.4994696 1.26422768 45.4994696 10.2997857 50.3726945 10.2997857 50.3726945 11.1360759 44.5243969 11.1360759"></polygon>
                        <path d="M53.2218239,9.30974554 C53.7391185,10.1326741 54.5812591,10.5509107 55.6146009,10.5509107 C56.9289532,10.5509107 57.9621168,9.79808482 57.9621168,8.61219643 C57.9621168,5.85183482 52.5730229,7.46950446 52.5730229,3.71837054 C52.5730229,1.96122768 54.1673165,1.01310268 55.9241223,1.01310268 C57.0618852,1.01310268 58.0652906,1.37459821 58.7748555,2.25426786 L57.9323585,2.82570536 C57.4448222,2.18398214 56.7961993,1.84939286 55.8957896,1.84939286 C54.63935,1.84939286 53.5468481,2.46274554 53.5468481,3.71837054 C53.5468481,6.68794196 58.9371894,4.90316071 58.9371894,8.61219643 C58.9371894,10.3978929 57.3869094,11.3872009 55.6880164,11.3872009 C54.3157514,11.3872009 53.1043947,10.9689643 52.2920123,9.89491071 L53.2218239,9.30974554 Z" id="path164"></path>
                        <polygon id="path166" points="71.9313866 1.26422768 72.9064592 1.26422768 72.9064592 11.1360759 71.9313866 11.1360759"></polygon>
                        <polygon id="path168" points="76.8044333 1.26422768 78.0592691 1.26422768 84.4234356 9.91010268 84.4531939 9.91010268 84.4531939 1.26422768 85.4270191 1.26422768 85.4270191 11.1360759 84.171827 11.1360759 77.8078386 2.49111607 77.7780804 2.49111607 77.7780804 11.1360759 76.8044333 11.1360759"></polygon>
                        <polygon id="path170" points="91.6441764 2.10051786 88.0714047 2.10051786 88.0714047 1.26422768 96.1920207 1.26422768 96.1920207 2.10051786 92.619249 2.10051786 92.619249 11.1360759 91.6441764 11.1360759"></polygon>
                        <polygon id="path172" points="98.8349807 1.26422768 105.228727 1.26422768 105.228727 2.10051786 99.8100533 2.10051786 99.8100533 5.61388839 104.889626 5.61388839 104.889626 6.45127679 99.8100533 6.45127679 99.8100533 10.2997857 105.464833 10.2997857 105.464833 11.1360759 98.8349807 11.1360759"></polygon>
                        <path d="M108.625088,1.26422768 L111.371043,1.26422768 C112.199285,1.26422768 115.09225,1.26422768 115.09225,3.85784375 C115.09225,5.74054911 113.57155,6.25542857 112.41971,6.39545089 L115.462535,11.1360759 L114.35453,11.1360759 L111.416304,6.45127679 L109.598735,6.45127679 L109.598735,11.1360759 L108.625088,11.1360759 L108.625088,1.26422768 Z M109.598735,5.61388839 L111.667735,5.61388839 C113.719985,5.61388839 114.118603,4.54093304 114.118603,3.85784375 C114.118603,3.17402232 113.719985,2.10051786 111.667735,2.10051786 L109.598735,2.10051786 L109.598735,5.61388839 Z" id="path174"></path>
                        <polygon id="path176" points="118.415017 1.26422768 119.669852 1.26422768 126.034197 9.91010268 126.063955 9.91010268 126.063955 1.26422768 127.037603 1.26422768 127.037603 11.1360759 125.784192 11.1360759 119.418422 2.49111607 119.390089 2.49111607 119.390089 11.1360759 118.415017 11.1360759"></polygon>
                        <path d="M134.140914,1.26422768 L135.145745,1.26422768 L139.545333,11.1360759 L138.452831,11.1360759 L137.316493,8.51427232 L131.779321,8.51427232 L130.597722,11.1360759 L129.578814,11.1360759 L134.140914,1.26422768 Z M134.598692,2.26762946 L132.162258,7.67798214 L136.961889,7.67798214 L134.598692,2.26762946 Z" id="path178"></path>
                        <polygon id="path180" points="143.400897 2.10051786 139.827947 2.10051786 139.827947 1.26422768 147.950345 1.26422768 147.950345 2.10051786 144.376147 2.10051786 144.376147 11.1360759 143.400897 11.1360759"></polygon>
                        <polygon id="path182" points="150.591879 1.26422768 151.566952 1.26422768 151.566952 11.1360759 150.591879 11.1360759"></polygon>
                        <path d="M160.190963,1.01310268 C163.379372,1.01310268 165.59556,3.18848214 165.59556,6.20015179 C165.59556,9.21182143 163.379372,11.3872009 160.190963,11.3872009 C157.001129,11.3872009 154.786545,9.21182143 154.786545,6.20015179 C154.786545,3.18848214 157.001129,1.01310268 160.190963,1.01310268 Z M160.190963,10.5509107 C162.92302,10.5509107 164.620309,8.65429464 164.620309,6.20015179 C164.620309,3.74692411 162.92302,1.84939286 160.190963,1.84939286 C157.459085,1.84939286 155.760192,3.74692411 155.760192,6.20015179 C155.760192,8.65429464 157.459085,10.5509107 160.190963,10.5509107 Z" id="path184"></path>
                        <polygon id="path186" points="168.813549 1.26422768 170.068741 1.26422768 176.43273 9.91010268 176.463913 9.91010268 176.463913 1.26422768 177.437561 1.26422768 177.437561 11.1360759 176.182725 11.1360759 169.81838 2.49111607 169.7888 2.49111607 169.7888 11.1360759 168.813549 11.1360759"></polygon>
                        <path d="M184.539447,1.26422768 L185.544277,1.26422768 L189.945291,11.1360759 L188.852967,11.1360759 L187.715382,8.51427232 L182.177853,8.51427232 L180.996255,11.1360759 L179.977347,11.1360759 L184.539447,1.26422768 Z M184.997403,2.26762946 L182.562394,7.67798214 L187.360421,7.67798214 L184.997403,2.26762946 Z" id="path188"></path>
                        <polygon id="path190" points="192.485077 1.26422768 193.458902 1.26422768 193.458902 10.2997857 198.332127 10.2997857 198.332127 11.1360759 192.485077 11.1360759"></polygon>
                    </g>
                    <g id="Layer1010" transform="translate(100.423729, 0.000000)">
                        <path d="M24.800381,22.110551 L19.7265107,22.110551 L17.4214047,16.9374548 L7.45167903,16.9374548 L5.07547405,22.110551 L0.391490239,22.110551 L10.5030577,1.35873606 L15.0441306,1.35873606 L24.800381,22.110551 Z M16.3217751,14.3794688 L12.9508963,6.62035673 C12.8081636,6.26696827 12.7728814,6.15023654 12.5608316,5.50377692 C12.3122522,6.17844375 12.2767918,6.29730433 12.1695195,6.56199087 L8.58659087,14.3794688 L16.3217751,14.3794688 Z" id="path193"></path>
                        <polygon id="path195" points="35.2727894 22.110551 30.6244442 22.110551 30.6244442 4.29778558 22.9614282 4.29778558 22.9614282 1.32964183 42.900345 1.32964183 42.900345 4.29778558 35.2727894 4.29778558"></polygon>
                        <polygon id="path197" points="60.568369 22.110551 46.0577486 22.110551 46.0577486 1.35873606 50.7401286 1.35873606 50.7401286 19.1424072 62.6247174 19.1424072"></polygon>
                        <path d="M88.6647878,22.110551 L83.5910956,22.110551 L81.2859897,16.9374548 L71.3164422,16.9374548 L68.9407718,22.110551 L64.2569662,22.110551 L74.3678208,1.35873606 L78.9088938,1.35873606 L88.6647878,22.110551 Z M80.1863601,14.3794688 L76.8156594,6.62035673 C76.6729268,6.26696827 76.6376445,6.15023654 76.4254165,5.50377692 C76.1768372,6.17844375 76.1415549,6.29730433 76.0341045,6.56199087 L72.451354,14.3794688 L80.1863601,14.3794688 Z" id="path199"></path>
                        <polygon id="path201" points="114.242803 22.110551 112.610555 22.110551 96.291096 7.11957115 96.4338287 22.110551 91.8221913 22.110551 91.8221913 1.35873606 96.1850711 1.35873606 109.844641 14.2331106 109.701909 1.35873606 114.242803 1.35873606"></polygon>
                        <polygon id="path203" points="129.711568 22.110551 125.063045 22.110551 125.063045 4.29778558 117.400207 4.29778558 117.400207 1.32964183 137.337876 1.32964183 137.337876 4.29778558 129.711568 4.29778558"></polygon>
                        <polygon id="path205" points="145.178729 22.110551 140.495102 22.110551 140.495102 1.35873606 145.178729 1.35873606"></polygon>
                        <path d="M170.36668,22.0521851 C168.203238,22.5508673 165.967093,22.6393918 164.690874,22.6393918 C155.288158,22.6393918 150.180609,17.7893481 150.180609,11.852351 C150.180609,5.8857274 155.395787,0.829540385 164.583601,0.829540385 C168.23852,0.829540385 170.686359,1.56416971 171.538478,1.82850144 L171.538478,5.38491635 C170.545051,4.82698125 168.344545,3.68006538 164.973844,3.68006538 C159.049102,3.68006538 155.146851,7.06067308 155.146851,11.6167587 C155.146851,16.2324519 158.978359,19.7888668 165.684478,19.7888668 C168.912446,19.7888668 171.78581,18.9650034 172.708672,18.7004942 L170.36668,22.0521851 Z" id="path207"></path>
                        <path d="M198.216123,22.110551 L193.143857,22.110551 L190.837147,16.9374548 L180.867778,16.9374548 L178.490504,22.110551 L173.808302,22.110551 L183.918978,1.35873606 L188.460051,1.35873606 L198.216123,22.110551 Z M189.737517,14.3794688 L186.366817,6.62035673 C186.224262,6.26696827 186.188802,6.15023654 185.97693,5.50377692 C185.728173,6.17844375 185.69289,6.29730433 185.58544,6.56199087 L182.00269,14.3794688 L189.737517,14.3794688 Z" id="path209"></path>
                    </g>
                </g>
            </g>
        </g>
    </g>
</svg>