<?xml version="1.0" encoding="UTF-8"?>
<svg width="83px" height="71px" viewBox="0 0 83 71" version="1.1" xmlns="http://www.w3.org/2000/svg" xmlns:xlink="http://www.w3.org/1999/xlink">
    <!-- Generator: Sketch 53.2 (72643) - https://sketchapp.com -->
    <title>fin-coin-dollar.1</title>
    <desc>Created with Sketch.</desc>
    <g id="Page-1" stroke="none" stroke-width="1" fill="none" fill-rule="evenodd">
        <g id="01---Home" transform="translate(-153.000000, -815.000000)" fill="#BD1F1F" fill-rule="nonzero">
            <g id="Group-3" transform="translate(108.000000, 730.000000)">
                <g id="fin-coin-dollar.1" transform="translate(45.000000, 85.000000)">
                    <path d="M1.875,71 L28.125,71 L38.293125,71 C39.328125,71 40.168125,70.1629474 40.168125,69.1315789 C40.168125,68.1002105 39.328125,67.2631579 38.293125,67.2631579 L30,67.2631579 L30,63.5263158 L32.145,63.5263158 C33.18,63.5263158 34.02,62.6892632 34.02,61.6578947 C34.02,60.6265263 33.18,59.7894737 32.145,59.7894737 L30,59.7894737 L30,55.7705 C30.555,55.4453947 30.945,54.8699211 30.945,54.1842105 C30.945,53.4985 30.555,52.9211579 30,52.5979211 L30,40.8193947 C30.549375,40.4942895 30.9375,39.9206842 30.9375,39.2368421 C30.9375,38.553 30.549375,37.9812632 30,37.6542895 L30,33.6315789 L32.145,33.6315789 C33.18,33.6315789 34.02,32.7945263 34.02,31.7631579 C34.02,30.7317895 33.18,29.8947368 32.145,29.8947368 L30,29.8947368 L30,26.1578947 L38.289375,26.1578947 C39.324375,26.1578947 40.164375,25.3208421 40.164375,24.2894737 C40.164375,23.2581053 39.324375,22.4210526 38.289375,22.4210526 L30,22.4210526 L30,18.6842105 L41.25,18.6842105 L41.25,20.8086053 C41.25,21.8399737 42.09,22.6770263 43.125,22.6770263 C44.16,22.6770263 45,21.8399737 45,20.8086053 L45,1.86842105 C45,0.837052632 44.16,0 43.125,0 L13.125,0 C12.09,0 11.25,0.837052632 11.25,1.86842105 L11.25,14.9473684 L1.875,14.9473684 C0.84,14.9473684 0,15.7844211 0,16.8157895 L0,69.1315789 C0,70.1629474 0.84,71 1.875,71 L1.875,71 Z M3.75,59.7894737 L3.75,56.0526316 L26.25,56.0526316 L26.25,59.7894737 L3.75,59.7894737 L3.75,59.7894737 Z M26.25,48.5789474 L26.25,52.3157895 L3.75,52.3157895 L3.75,48.5789474 L26.25,48.5789474 L26.25,48.5789474 Z M3.75,44.8421053 L3.75,41.1052632 L26.25,41.1052632 L26.25,44.8421053 L3.75,44.8421053 L3.75,44.8421053 Z M26.25,37.3684211 L3.75,37.3684211 L3.75,33.6315789 L26.25,33.6315789 L26.25,37.3684211 L26.25,37.3684211 Z M3.75,29.8947368 L3.75,26.1578947 L26.25,26.1578947 L26.25,29.8947368 L3.75,29.8947368 L3.75,29.8947368 Z M3.75,63.5263158 L26.25,63.5263158 L26.25,67.2631579 L3.75,67.2631579 L3.75,63.5263158 L3.75,63.5263158 Z M29.998125,14.9473684 L28.125,14.9473684 L15,14.9473684 L15,11.2105263 L41.25,11.2105263 L41.25,14.9473684 L29.998125,14.9473684 L29.998125,14.9473684 Z M41.25,3.73684211 L41.25,7.47368421 L15,7.47368421 L15,3.73684211 L41.25,3.73684211 L41.25,3.73684211 Z M13.125,18.6842105 L26.25,18.6842105 L26.25,22.4210526 L3.75,22.4210526 L3.75,18.6842105 L13.125,18.6842105 L13.125,18.6842105 Z" id="Shape"></path>
                    <path d="M58.5,22 C44.9910769,22 34,32.9910769 34,46.5 C34,60.0089231 44.9910769,71 58.5,71 C72.0089231,71 83,60.0089231 83,46.5 C83,32.9910769 72.0089231,22 58.5,22 L58.5,22 Z M58.5,67.2307692 C47.0698077,67.2307692 37.7692308,57.9301923 37.7692308,46.5 C37.7692308,35.0698077 47.0698077,25.7692308 58.5,25.7692308 C69.9301923,25.7692308 79.2307692,35.0698077 79.2307692,46.5 C79.2307692,57.9301923 69.9301923,67.2307692 58.5,67.2307692 L58.5,67.2307692 Z" id="Shape"></path>
                    <path d="M58.5,37.5555556 C61.5894,37.5555556 64.2,39.2857778 64.2,41.3333333 C64.2,42.376 65.0512,43.2222222 66.1,43.2222222 C67.1488,43.2222222 68,42.376 68,41.3333333 C68,37.684 64.7301,34.6334444 60.4,33.9307778 L60.4,31.8888889 C60.4,30.8462222 59.5488,30 58.5,30 C57.4512,30 56.6,30.8462222 56.6,31.8888889 L56.6,33.9307778 C52.2699,34.6334444 49,37.684 49,41.3333333 C49,46.3445556 55.0743,48.0162222 58.0193,48.8265556 C62.1784,49.9088889 64.2,51.165 64.2,52.6666667 C64.2,54.7142222 61.5894,56.4444444 58.5,56.4444444 C55.4106,56.4444444 52.8,54.7142222 52.8,52.6666667 C52.8,51.624 51.9488,50.7777778 50.9,50.7777778 C49.8512,50.7777778 49,51.624 49,52.6666667 C49,56.316 52.2699,59.3665556 56.6,60.0692222 L56.6,62.1111111 C56.6,63.1537778 57.4512,64 58.5,64 C59.5488,64 60.4,63.1537778 60.4,62.1111111 L60.4,60.0692222 C64.7301,59.3665556 68,56.316 68,52.6666667 C68,47.5175556 61.4469,45.8137778 59.0073,45.1791111 C54.7133,43.9985556 52.8,42.8123333 52.8,41.3333333 C52.8,39.2857778 55.4106,37.5555556 58.5,37.5555556 L58.5,37.5555556 Z" id="Shape"></path>
                </g>
            </g>
        </g>
    </g>
</svg>