<?xml version="1.0" encoding="UTF-8"?>
<svg width="30px" height="30px" viewBox="0 0 30 30" version="1.1" xmlns="http://www.w3.org/2000/svg" xmlns:xlink="http://www.w3.org/1999/xlink">
    <!-- Generator: Sketch 53.2 (72643) - https://sketchapp.com -->
    <title>bra-facebook</title>
    <desc>Created with Sketch.</desc>
    <g id="Symbols" stroke="none" stroke-width="1" fill="none" fill-rule="evenodd">
        <g id="footer" transform="translate(-407.000000, -98.000000)" fill="#000000" fill-rule="nonzero">
            <g id="social-medias">
                <g transform="translate(407.000000, 98.000000)">
                    <g id="bra-facebook">
                        <path d="M15,0 C6.72888889,0 0,6.72888889 0,15 C0,23.2711111 6.72888889,30 15,30 C23.2711111,30 30,23.2711111 30,15 C30,6.72888889 23.2711111,0 15,0 L15,0 Z M15,28.8888889 C7.34166667,28.8888889 1.11111111,22.6583333 1.11111111,15 C1.11111111,7.34166667 7.34166667,1.11111111 15,1.11111111 C22.6583333,1.11111111 28.8888889,7.34166667 28.8888889,15 C28.8888889,22.6583333 22.6583333,28.8888889 15,28.8888889 L15,28.8888889 Z" id="Shape"></path>
                        <path d="M12.2222222,9.26222222 L12.2222222,11.1111111 L10,11.1111111 L10,14.5027778 L12.2222222,14.5027778 L12.2222222,24.4444444 L16.6666667,24.4444444 L16.6666667,14.5027778 L20,14.5027778 L20,11.1111111 L16.6666667,11.1111111 L16.6666667,10.0888889 C16.6666667,9.32277778 17.2905556,8.70111111 18.0588889,8.70111111 L20,8.70111111 L20,5.55555556 L15.9388889,5.55555556 C13.8866667,5.55555556 12.2222222,7.21555556 12.2222222,9.26222222 L12.2222222,9.26222222 Z" id="Shape"></path>
                    </g>
                </g>
            </g>
        </g>
    </g>
</svg>