<?xml version="1.0" encoding="UTF-8"?>
<svg width="148px" height="165px" viewBox="0 0 148 165" version="1.1" xmlns="http://www.w3.org/2000/svg" xmlns:xlink="http://www.w3.org/1999/xlink">
    <!-- Generator: Sketch 53.2 (72643) - https://sketchapp.com -->
    <title>use-user-structure</title>
    <desc>Created with Sketch.</desc>
    <g id="Page-1" stroke="none" stroke-width="1" fill="none" fill-rule="evenodd">
        <g id="04---Serviços" transform="translate(-438.000000, -1958.000000)" fill="#BD1F1F" fill-rule="nonzero">
            <g id="Group-4" transform="translate(118.000000, 1958.000000)">
                <g id="use-user-structure" transform="translate(320.000000, 0.000000)">
                    <path d="M112.37037,82.2222222 L76.7407407,82.2222222 L76.7407407,68.5185185 C76.7407407,67.0028889 75.5156296,65.7777778 74,65.7777778 C72.4843704,65.7777778 71.2592593,67.0028889 71.2592593,68.5185185 L71.2592593,82.2222222 L35.6296296,82.2222222 C34.114,82.2222222 32.8888889,83.4473333 32.8888889,84.962963 L32.8888889,95.9259259 C32.8888889,97.4415556 34.114,98.6666667 35.6296296,98.6666667 C37.1452593,98.6666667 38.3703704,97.4415556 38.3703704,95.9259259 L38.3703704,87.7037037 L109.62963,87.7037037 L109.62963,95.9259259 C109.62963,97.4415556 110.854741,98.6666667 112.37037,98.6666667 C113.886,98.6666667 115.111111,97.4415556 115.111111,95.9259259 L115.111111,84.962963 C115.111111,83.4473333 113.886,82.2222222 112.37037,82.2222222 L112.37037,82.2222222 Z" id="Shape"></path>
                    <path d="M90.4444444,16.4444444 C90.4444444,7.37533333 83.0691111,0 74,0 C64.9308889,0 57.5555556,7.37533333 57.5555556,16.4444444 C57.5555556,21.5614074 59.9043704,26.1357037 63.5797037,29.1532593 C51.493037,33.2314815 42.3088148,44.1314074 41.1220741,57.3088889 C40.985037,58.8162963 42.0977778,60.1482963 43.6051852,60.2853333 C43.6874074,60.2935556 43.7723704,60.2962963 43.8545926,60.2962963 C45.2578519,60.2962963 46.4528148,59.2246667 46.5816296,57.8022222 C47.8396296,43.8299259 59.8851852,32.8888889 74,32.8888889 C88.1120741,32.8888889 100.15763,43.8326667 101.41837,57.8022222 C101.555407,59.3123704 102.912074,60.4360741 104.394815,60.2853333 C105.902222,60.1482963 107.014963,58.8162963 106.877926,57.3088889 C105.688444,44.1341481 96.5042222,33.2342222 84.4202963,29.1532593 C88.0956296,26.1357037 90.4444444,21.5614074 90.4444444,16.4444444 L90.4444444,16.4444444 Z M74,27.4074074 C67.9539259,27.4074074 63.037037,22.4905185 63.037037,16.4444444 C63.037037,10.3983704 67.9539259,5.48148148 74,5.48148148 C80.0460741,5.48148148 84.962963,10.3983704 84.962963,16.4444444 C84.962963,22.4905185 80.0460741,27.4074074 74,27.4074074 L74,27.4074074 Z" id="Shape"></path>
                    <path d="M0.010962963,161.457037 C-0.126074074,162.964444 0.986666667,164.296444 2.49407407,164.433481 C2.5762963,164.441704 2.66125926,164.444444 2.74348148,164.444444 C4.14674074,164.444444 5.3417037,163.372815 5.47051852,161.95037 C6.72851852,147.978074 18.7740741,137.037037 32.8888889,137.037037 C47.000963,137.037037 59.0465185,147.980815 60.3072593,161.95037 C60.4442963,163.460519 61.7982222,164.584222 63.2837037,164.433481 C64.7911111,164.296444 65.9038519,162.964444 65.7668148,161.457037 C64.5773333,148.282296 55.3931111,137.38237 43.3091852,133.301407 C46.9845185,130.283852 49.3333333,125.706815 49.3333333,120.592593 C49.3333333,111.523481 41.958,104.148148 32.8888889,104.148148 C23.8197778,104.148148 16.4444444,111.523481 16.4444444,120.592593 C16.4444444,125.709556 18.7932593,130.283852 22.4685926,133.301407 C10.3819259,137.38237 1.1977037,148.282296 0.010962963,161.457037 L0.010962963,161.457037 Z M21.9259259,120.592593 C21.9259259,114.546519 26.8428148,109.62963 32.8888889,109.62963 C38.934963,109.62963 43.8518519,114.546519 43.8518519,120.592593 C43.8518519,126.638667 38.934963,131.555556 32.8888889,131.555556 C26.8428148,131.555556 21.9259259,126.638667 21.9259259,120.592593 L21.9259259,120.592593 Z" id="Shape"></path>
                    <path d="M131.555556,120.592593 C131.555556,111.523481 124.180222,104.148148 115.111111,104.148148 C106.042,104.148148 98.6666667,111.523481 98.6666667,120.592593 C98.6666667,125.709556 101.015481,130.283852 104.690815,133.301407 C92.6041481,137.37963 83.4199259,148.279556 82.2331852,161.457037 C82.0961481,162.964444 83.2088889,164.296444 84.7162963,164.433481 C84.7985185,164.441704 84.8834815,164.444444 84.9657037,164.444444 C86.368963,164.444444 87.5639259,163.372815 87.6927407,161.95037 C88.9507407,147.978074 100.996296,137.037037 115.111111,137.037037 C129.223185,137.037037 141.268741,147.980815 142.529481,161.95037 C142.666519,163.460519 144.025926,164.584222 145.505926,164.433481 C147.013333,164.296444 148.126074,162.964444 147.989037,161.457037 C146.799556,148.282296 137.615333,137.38237 125.531407,133.301407 C129.206741,130.283852 131.555556,125.709556 131.555556,120.592593 L131.555556,120.592593 Z M115.111111,131.555556 C109.065037,131.555556 104.148148,126.638667 104.148148,120.592593 C104.148148,114.546519 109.065037,109.62963 115.111111,109.62963 C121.157185,109.62963 126.074074,114.546519 126.074074,120.592593 C126.074074,126.638667 121.157185,131.555556 115.111111,131.555556 L115.111111,131.555556 Z" id="Shape"></path>
                </g>
            </g>
        </g>
    </g>
</svg>