<?xml version="1.0" encoding="UTF-8"?>
<svg width="70px" height="66px" viewBox="0 0 70 66" version="1.1" xmlns="http://www.w3.org/2000/svg" xmlns:xlink="http://www.w3.org/1999/xlink">
    <!-- Generator: Sketch 53.2 (72643) - https://sketchapp.com -->
    <title>cha-translate.1</title>
    <desc>Created with Sketch.</desc>
    <g id="Page-1" stroke="none" stroke-width="1" fill="none" fill-rule="evenodd">
        <g id="01---Home" transform="translate(-797.000000, -817.000000)" fill="#BD1F1F" fill-rule="nonzero">
            <g id="Group-5" transform="translate(742.000000, 730.000000)">
                <g id="cha-translate.1" transform="translate(55.000000, 87.000000)">
                    <path d="M36.2692308,25 L4.73076923,25 C2.12253846,25 0,27.1225385 0,29.7307692 L0,51.8076923 C0,54.4159231 2.12253846,56.5384615 4.73076923,56.5384615 L9.46153846,56.5384615 L9.46153846,64.4230769 C9.46153846,65.0601538 9.84630769,65.6373077 10.4345,65.8801538 C10.6300385,65.9621538 10.8350385,66 11.0384615,66 C11.4484615,66 11.8521538,65.8391538 12.1533462,65.5379615 L21.1528462,56.5384615 L36.2692308,56.5384615 C38.8774615,56.5384615 41,54.4159231 41,51.8076923 L41,29.7307692 C41,27.1225385 38.8774615,25 36.2692308,25 L36.2692308,25 Z M37.8461538,51.8076923 C37.8461538,52.6781538 37.1381154,53.3846154 36.2692308,53.3846154 L20.5,53.3846154 C20.0821154,53.3846154 19.68,53.5501923 19.3851154,53.8466538 L12.6153846,60.6163846 L12.6153846,54.9615385 C12.6153846,54.0895 11.9089231,53.3846154 11.0384615,53.3846154 L4.73076923,53.3846154 C3.86188462,53.3846154 3.15384615,52.6781538 3.15384615,51.8076923 L3.15384615,29.7307692 C3.15384615,28.8603077 3.86188462,28.1538462 4.73076923,28.1538462 L36.2692308,28.1538462 C37.1381154,28.1538462 37.8461538,28.8603077 37.8461538,29.7307692 L37.8461538,51.8076923 L37.8461538,51.8076923 Z" id="Shape"></path>
                    <path d="M65.2692308,0 L33.7307692,0 C31.1225385,0 29,2.12253846 29,4.73076923 L29,20.5 C29,21.3720385 29.7064615,22.0769231 30.5769231,22.0769231 C31.4473846,22.0769231 32.1538462,21.3720385 32.1538462,20.5 L32.1538462,4.73076923 C32.1538462,3.86030769 32.8618846,3.15384615 33.7307692,3.15384615 L65.2692308,3.15384615 C66.1381154,3.15384615 66.8461538,3.86030769 66.8461538,4.73076923 L66.8461538,26.8076923 C66.8461538,27.6781538 66.1381154,28.3846154 65.2692308,28.3846154 L58.9615385,28.3846154 C58.0910769,28.3846154 57.3846154,29.0895 57.3846154,29.9615385 L57.3846154,35.6163846 L50.6148846,28.8466538 C50.32,28.5501923 49.9178846,28.3846154 49.5,28.3846154 L46.3461538,28.3846154 C45.4756923,28.3846154 44.7692308,29.0895 44.7692308,29.9615385 C44.7692308,30.8335769 45.4756923,31.5384615 46.3461538,31.5384615 L48.8455769,31.5384615 L57.8450769,40.5379615 C58.1478462,40.8391538 58.5515385,41 58.9615385,41 C59.1649615,41 59.3699615,40.9621538 59.5655,40.8801538 C60.1552692,40.6373077 60.5384615,40.0601538 60.5384615,39.4230769 L60.5384615,31.5384615 L65.2692308,31.5384615 C67.8774615,31.5384615 70,29.4159231 70,26.8076923 L70,4.73076923 C70,2.12253846 67.8774615,0 65.2692308,0 L65.2692308,0 Z" id="Shape"></path>
                    <path d="M21.9153009,31.8080542 C21.3786264,30.7306486 19.6197905,30.7306486 19.083116,31.8080542 L11.1675629,47.6989922 C10.7765346,48.4840045 11.0931567,49.4390499 11.8752134,49.8315561 C12.6588531,50.2224731 13.6087195,49.9062435 13.9997478,49.1212311 L16.7290305,43.6436248 L24.2709695,43.6436248 L27.0002522,49.1212311 C27.2772965,49.6790031 27.8361346,50 28.4187193,50 C28.6561859,50 28.8984018,49.9459708 29.1247866,49.8331452 C29.9068433,49.440639 30.2234654,48.4855936 29.8324371,47.7005813 L21.9153009,31.8080542 L21.9153009,31.8080542 Z M18.310558,40.4638481 L20.4984169,36.0715929 L22.6862758,40.4638481 L18.310558,40.4638481 L18.310558,40.4638481 Z" id="Shape"></path>
                    <path d="M55.0201429,24.97625 C55.1097143,24.9920833 55.1992857,25 55.2872857,25 C56.04,25 56.7031429,24.4553333 56.8351429,23.68425 C56.9812857,22.8229167 56.4077143,22.00275 55.5512857,21.8570833 C55.5151429,21.85075 53.2994286,21.4359167 50.7317143,19.8209167 C53.0951429,17.7705 55.3674286,15.2023333 56.4312857,12.3333333 L58.4285714,12.3333333 C59.296,12.3333333 60,11.6255833 60,10.75 C60,9.87441667 59.296,9.16666667 58.4285714,9.16666667 L52.1428571,9.16666667 C53.0102857,9.16666667 53.7142857,8.45891667 53.7142857,7.58333333 C53.7142857,6.70775 53.0102857,6 52.1428571,6 L45.8571429,6 C44.9897143,6 44.2857143,6.70775 44.2857143,7.58333333 C44.2857143,8.45891667 44.9897143,9.16666667 45.8571429,9.16666667 L39.5714286,9.16666667 C38.704,9.16666667 38,9.87441667 38,10.75 C38,11.6255833 38.704,12.3333333 39.5714286,12.3333333 L52.9945714,12.3333333 C51.9244286,14.3885 50.0811429,16.2821667 48.1922857,17.84175 C47.2808571,16.9725 46.3977143,15.9338333 45.6214286,14.66875 C45.1657143,13.923 44.1977143,13.6918333 43.4591429,14.1541667 C42.7205714,14.6133333 42.4911429,15.5886667 42.9484286,16.3328333 C43.7671429,17.6691667 44.6848571,18.80125 45.6355714,19.7639167 C43.6288571,21.1461667 42.0338571,21.9869167 41.9945714,22.0075 C41.223,22.4080833 40.9197143,23.36125 41.3157143,24.14025 C41.5938571,24.6865 42.1438571,25 42.7142857,25 C42.9562857,25 43.2014286,24.9445833 43.4308571,24.8258333 C43.6272857,24.7245 45.6764286,23.6430833 48.1247143,21.8745 C51.5818571,24.3381667 54.8174286,24.943 55.0201429,24.97625 L55.0201429,24.97625 Z" id="Shape"></path>
                </g>
            </g>
        </g>
    </g>
</svg>