<?xml version="1.0" encoding="UTF-8"?>
<svg width="1024px" height="163px" viewBox="0 0 1024 163" version="1.1" xmlns="http://www.w3.org/2000/svg" xmlns:xlink="http://www.w3.org/1999/xlink">
    <!-- Generator: Sketch 53.2 (72643) - https://sketchapp.com -->
    <title>footer</title>
    <desc>Created with Sketch.</desc>
    <g id="Page-1" stroke="none" stroke-width="1" fill="none" fill-rule="evenodd">
        <g id="01---Home" transform="translate(0.000000, -1125.000000)">
            <g id="footer" transform="translate(0.000000, 1125.000000)">
                <g>
                    <rect id="Rectangle" fill="#FFFFFF" x="0" y="0" width="1024" height="163"></rect>
                    <text id="copyright" font-family="Avenir-Heavy, Avenir" font-size="9" font-weight="600" fill="#BD1F1F">
                        <tspan x="386" y="149">CONEXÃOSP © 2019 - TODOS OS DIREITOS RESERVADOS</tspan>
                    </text>
                    <g id="social-medias" transform="translate(407.000000, 98.000000)" fill="#000000" fill-rule="nonzero">
                        <g id="bra-facebook">
                            <path d="M15,0 C6.72888889,0 0,6.72888889 0,15 C0,23.2711111 6.72888889,30 15,30 C23.2711111,30 30,23.2711111 30,15 C30,6.72888889 23.2711111,0 15,0 L15,0 Z M15,28.8888889 C7.34166667,28.8888889 1.11111111,22.6583333 1.11111111,15 C1.11111111,7.34166667 7.34166667,1.11111111 15,1.11111111 C22.6583333,1.11111111 28.8888889,7.34166667 28.8888889,15 C28.8888889,22.6583333 22.6583333,28.8888889 15,28.8888889 L15,28.8888889 Z" id="Shape"></path>
                            <path d="M12.2222222,9.26222222 L12.2222222,11.1111111 L10,11.1111111 L10,14.5027778 L12.2222222,14.5027778 L12.2222222,24.4444444 L16.6666667,24.4444444 L16.6666667,14.5027778 L20,14.5027778 L20,11.1111111 L16.6666667,11.1111111 L16.6666667,10.0888889 C16.6666667,9.32277778 17.2905556,8.70111111 18.0588889,8.70111111 L20,8.70111111 L20,5.55555556 L15.9388889,5.55555556 C13.8866667,5.55555556 12.2222222,7.21555556 12.2222222,9.26222222 L12.2222222,9.26222222 Z" id="Shape"></path>
                        </g>
                        <g id="bra-twitter" transform="translate(60.000000, 0.000000)">
                            <path d="M15,0 C6.72888889,0 0,6.72888889 0,15 C0,23.2711111 6.72888889,30 15,30 C23.2711111,30 30,23.2711111 30,15 C30,6.72888889 23.2711111,0 15,0 L15,0 Z M15,28.8888889 C7.34166667,28.8888889 1.11111111,22.6583333 1.11111111,15 C1.11111111,7.34166667 7.34166667,1.11111111 15,1.11111111 C22.6583333,1.11111111 28.8888889,7.34166667 28.8888889,15 C28.8888889,22.6583333 22.6583333,28.8888889 15,28.8888889 L15,28.8888889 Z" id="Shape"></path>
                            <path d="M24.1722222,8.06555556 C23.4138889,8.51611111 22.5727778,8.84333333 21.6777778,9.01833333 C20.9605556,8.25444444 19.9405556,7.77833333 18.8111111,7.77833333 C16.6411111,7.77833333 14.8822222,9.53722222 14.8822222,11.7061111 C14.8822222,12.0122222 14.9183333,12.3138889 14.9855556,12.6 C11.7205556,12.435 8.82555556,10.8727778 6.88888889,8.49611111 C6.55166667,9.07777778 6.35833333,9.75277778 6.35833333,10.47 C6.35833333,11.8338889 7.04944444,13.0361111 8.105,13.7394444 C7.46166667,13.72 6.855,13.5427778 6.32444444,13.2488889 L6.32444444,13.2988889 C6.32444444,15.2022222 7.67888889,16.7883333 9.47555556,17.15 C9.14555556,17.2377778 8.79833333,17.2855556 8.44277778,17.2855556 C8.18888889,17.2855556 7.94277778,17.2627778 7.70277778,17.2172222 C8.20277778,18.7777778 9.65388889,19.9116667 11.3716667,19.9427778 C10.0272222,20.9955556 8.33444444,21.6244444 6.49444444,21.6244444 C6.17666667,21.6244444 5.86277778,21.6061111 5.55666667,21.5688889 C7.29388889,22.6822222 9.35888889,23.3333333 11.5777778,23.3333333 C18.8033333,23.3333333 22.7538889,17.35 22.7538889,12.1594444 C22.7538889,11.99 22.7483333,11.82 22.7422222,11.6527778 C23.5105556,11.0994444 24.1755556,10.4083333 24.7016667,9.61833333 C23.9983333,9.93166667 23.24,10.1422222 22.445,10.2377778 C23.255,9.75277778 23.8777778,8.98222222 24.1722222,8.06555556 L24.1722222,8.06555556 Z" id="Shape"></path>
                        </g>
                        <g id="bra-instagram" transform="translate(120.000000, 0.000000)">
                            <path d="M15,0 C6.72888889,0 0,6.72888889 0,15 C0,23.2711111 6.72888889,30 15,30 C23.2711111,30 30,23.2711111 30,15 C30,6.72888889 23.2711111,0 15,0 L15,0 Z M15,28.8888889 C7.34166667,28.8888889 1.11111111,22.6583333 1.11111111,15 C1.11111111,7.34166667 7.34166667,1.11111111 15,1.11111111 C22.6583333,1.11111111 28.8888889,7.34166667 28.8888889,15 C28.8888889,22.6583333 22.6583333,28.8888889 15,28.8888889 L15,28.8888889 Z" id="Shape"></path>
                            <path d="M21.4105556,6.66666667 L8.58944444,6.66666667 C7.52777778,6.66666667 6.66666667,7.52722222 6.66666667,8.58944444 L6.66666667,21.4094444 C6.66666667,22.4727778 7.52777778,23.3333333 8.58944444,23.3333333 L21.4105556,23.3333333 C22.4727778,23.3333333 23.3333333,22.4727778 23.3333333,21.4094444 L23.3333333,8.58944444 C23.3333333,7.52722222 22.4727778,6.66666667 21.4105556,6.66666667 L21.4105556,6.66666667 Z M15,11.7944444 C16.7705556,11.7944444 18.205,13.23 18.205,15 C18.205,16.77 16.7705556,18.2055556 15,18.2055556 C13.2294444,18.2055556 11.795,16.77 11.795,15 C11.795,13.23 13.2294444,11.7944444 15,11.7944444 L15,11.7944444 Z M21.4105556,20.7694444 C21.4105556,21.1233333 21.1233333,21.4094444 20.7688889,21.4094444 L9.23111111,21.4094444 C8.87666667,21.4094444 8.58944444,21.1227778 8.58944444,20.7694444 L8.58944444,13.7177778 L10.0405556,13.7177778 C9.935,14.1272222 9.87166667,14.5566667 9.87166667,15.0005556 C9.87166667,17.8333333 12.1683333,20.1283333 15,20.1283333 C17.8316667,20.1283333 20.1283333,17.8327778 20.1283333,15.0005556 C20.1283333,14.5566667 20.0655556,14.1277778 19.96,13.7177778 L21.4111111,13.7177778 L21.4111111,20.7694444 L21.4105556,20.7694444 Z M21.4105556,11.1533333 C21.4105556,11.5066667 21.1233333,11.7944444 20.7688889,11.7944444 L18.8472222,11.7944444 C18.4927778,11.7944444 18.205,11.5061111 18.205,11.1533333 L18.205,9.23055556 C18.205,8.87555556 18.4922222,8.58944444 18.8472222,8.58944444 L20.7688889,8.58944444 C21.1233333,8.58944444 21.4105556,8.87611111 21.4105556,9.23055556 L21.4105556,11.1533333 L21.4105556,11.1533333 Z" id="Shape"></path>
                        </g>
                        <g id="bra-linkedin" transform="translate(180.000000, 0.000000)">
                            <path d="M15,0 C6.72888889,0 0,6.72888889 0,15 C0,23.2711111 6.72888889,30 15,30 C23.2711111,30 30,23.2711111 30,15 C30,6.72888889 23.2711111,0 15,0 L15,0 Z M15,28.8888889 C7.34166667,28.8888889 1.11111111,22.6583333 1.11111111,15 C1.11111111,7.34166667 7.34166667,1.11111111 15,1.11111111 C22.6583333,1.11111111 28.8888889,7.34166667 28.8888889,15 C28.8888889,22.6583333 22.6583333,28.8888889 15,28.8888889 L15,28.8888889 Z" id="Shape"></path>
                            <rect id="Rectangle-path" x="7.77777778" y="11.1294444" width="3.33333333" height="9.98166667"></rect>
                            <path d="M9.45333333,5.85388889 C8.27277778,5.85388889 7.5,6.62944444 7.5,7.64833333 C7.5,8.64555556 8.24888889,9.44388889 9.40833333,9.44388889 L9.43111111,9.44388889 C10.6355556,9.44388889 11.3844444,8.645 11.3844444,7.64833333 C11.3627778,6.63 10.6355556,5.85388889 9.45333333,5.85388889 L9.45333333,5.85388889 Z" id="Shape"></path>
                            <path d="M19.6355556,11.1111111 C17.7722222,11.1111111 17.1216667,12.0922222 16.6666667,12.8016667 L16.6666667,11.1294444 L13.3333333,11.1294444 L13.3333333,21.1111111 L16.6894444,21.1111111 C16.6894444,21.1111111 16.6666667,15.1377778 16.6666667,15 C16.6666667,14.08 17.4133333,13.3333333 18.3333333,13.3333333 C19.2533333,13.3333333 20,14.08 20,15 L20,21.1111111 L23.3333333,21.1111111 L23.3333333,15.7272222 C23.3333333,12.5355556 21.9077778,11.1111111 19.6355556,11.1111111 L19.6355556,11.1111111 Z" id="Shape"></path>
                        </g>
                    </g>
                    <g id="logo-footer/red" transform="translate(487.000000, 30.000000)" fill="#BD1F1F">
                        <path d="M26,45.5115243 C21.4856235,45.4525255 17.4498336,44.2786224 13.8926303,41.9906825 C10.336297,39.7027426 7.60748341,36.6599646 5.70618958,32.8623485 L5.16060084,32.8623485 C7.07668729,36.8083293 9.86467155,39.9699723 13.5254237,42.3464106 C17.1861759,44.7228488 21.3446579,45.9410012 26,46 C30.6553421,45.9410012 34.8103435,44.7228488 38.4632643,42.3464106 C42.1240162,39.9699723 44.9163514,36.8083293 46.8393992,32.8623485 L46.2824984,32.8623485 C44.389036,36.6599646 41.663703,39.7027426 38.1073697,41.9906825 C34.5432051,44.2786224 30.5074153,45.4525255 26,45.5115243 M3.50121065,21.2014031 L3,21.2014031 C3.34893306,17.2103058 4.57411465,13.623524 6.67554479,10.4393225 C8.78393619,7.25598838 11.5127498,4.73118559 14.8619855,2.86578127 C18.2033898,0.999509603 21.9163514,0.0451165308 26,0 C30.0766873,0.0451165308 33.7887788,0.999509603 37.1380145,2.86578127 C40.4872502,4.73118559 43.2117131,7.25598838 45.3131432,10.4393225 C47.4145731,13.623524 48.6432356,17.2103058 49,21.2014031 L48.4987893,21.2014031 C48.1498563,17.2996717 46.9472987,13.79705 44.8902466,10.6952732 C42.8262333,7.58568773 40.1600711,5.11641325 36.8926303,3.2874495 C33.618228,1.46629436 29.9870612,0.5335922 26,0.489343021 C22.0129388,0.5335922 18.381772,1.46629436 15.1073697,3.2874495 C11.8320976,5.11641325 9.16680544,7.58568773 7.10975338,10.6952732 C5.05270133,13.8048586 3.85014371,17.3066127 3.50121065,21.2014031" id="Shape"></path>
                        <path d="M22.7868511,14.3580248 L21.7995422,14.3580248 L21.7995422,16.092068 L22.7868511,16.092068 L22.7868511,14.3580248 M22.7868511,19.1190909 L22.7868511,17.3962684 L21.7995422,17.3962684 L21.7995422,19.1190909 L22.7868511,19.1190909 M38.9859976,21.2847025 L38.9859976,19.5506594 L37.9986887,19.5506594 L37.9986887,21.2847025 L38.9859976,21.2847025 M29.1779206,11.009915 L28.1906117,11.009915 L28.1906117,12.7448211 L29.1779206,12.7448211 L29.1779206,11.009915 M25.4939324,3 C20.2722041,3.11824977 15.8600863,4.83071436 12.2575792,8.13739377 C8.65507207,11.4371679 6.56950141,15.628563 6,20.710716 L11.8909142,20.710716 L11.8909142,14.9872521 L16.5847485,14.9872521 L16.5847485,20.710716 L17.5720574,20.710716 L17.5720574,12.5350786 L19.5917496,12.5350786 L19.5917496,17.4402885 L20.5790586,17.4402885 L20.5790586,7.36402266 L24.0186034,7.36402266 L24.0186034,19.2192146 L25.0059123,19.2192146 L25.0059123,10.0380222 L30.2536453,10.0380222 L30.2536453,22.3454984 L31.2418208,22.3454984 L31.2418208,12.9105434 L34.0485865,12.9105434 L34.0485865,20.710716 L35.0358954,20.710716 L35.0358954,18.2801211 L40.2177499,18.2801211 L40.2177499,20.710716 L45,20.710716 C44.4304988,15.628563 42.3440612,11.4337155 38.7415543,8.12617304 C35.1399139,4.82639873 30.7234621,3.11824977 25.4939324,3 M8.57359103,32.3112826 L42.4255424,32.3112826 C40.6875668,35.2494025 38.346284,37.5885047 35.4025605,39.3268633 C32.4510358,41.0721272 29.1484488,41.9637481 25.4939324,42 C21.8402828,41.9637481 18.5411631,41.0721272 15.5974395,39.3268633 C12.6528495,37.5885047 10.3124334,35.2494025 8.57359103,32.3112826" id="Shape"></path>
                        <path d="M5.15909087,25.8283194 L4.34469702,25.8283194 L4.34469702,25.8283194 C4.17550503,25.5523858 3.95138882,25.3357538 3.67234837,25.1784232 L3.67234837,25.1784232 L3.67234837,25.1784232 C3.39330808,25.0210926 3.08207074,24.9424273 2.73863636,24.9424273 L2.73863636,24.9424273 L2.73863636,24.9424273 C2.44570705,24.9424273 2.17803027,25.0017289 1.93560603,25.120332 L1.93560603,25.120332 L1.93560603,25.120332 C1.69318179,25.238935 1.48547979,25.3980809 1.31250003,25.5977696 L1.31250003,25.5977696 L1.31250003,25.5977696 C1.13952013,25.7974584 1.00505039,26.0286133 0.909090799,26.2912343 L0.909090799,26.2912343 L0.909090799,26.2912343 C0.813131212,26.5538554 0.765151419,26.8303941 0.765151419,27.1208507 L0.765151419,27.1208507 L0.765151419,27.1208507 C0.765151419,27.4645575 0.818181764,27.7689315 0.924242453,28.0339729 L0.924242453,28.0339729 L0.924242453,28.0339729 C1.03030299,28.2990144 1.16856058,28.5192772 1.3390152,28.6947614 L1.3390152,28.6947614 L1.3390152,28.6947614 C1.50946968,28.8702455 1.71212113,29.016684 1.94696955,29.1340767 L1.94696955,29.1340767 L1.94696955,29.1340767 C2.18181811,29.2514696 2.44570705,29.310166 2.73863636,29.310166 L2.73863636,29.310166 L2.73863636,29.310166 C3.13762621,29.310166 3.48484843,29.217583 3.78030302,29.0324169 L3.78030302,29.0324169 L3.78030302,29.0324169 C4.07575761,28.8472509 4.32828288,28.5428768 4.53787883,28.1192946 L4.53787883,28.1192946 L5.20454539,28.4206432 L5.20454539,28.4206432 C5.1085858,28.6820539 4.945707,28.9343879 4.71590899,29.1776452 L4.71590899,29.1776452 L4.71590899,29.1776452 C4.48611098,29.4209025 4.20265138,29.6169606 3.86553019,29.7658195 L3.86553019,29.7658195 L3.86553019,29.7658195 C3.52840899,29.9146784 3.15530292,29.9891078 2.74621196,29.9891078 L2.74621196,29.9891078 L2.74621196,29.9891078 C2.35479794,29.9891078 1.99494949,29.918309 1.66666661,29.7767115 L1.66666661,29.7767115 L1.66666661,29.7767115 C1.33838374,29.6351141 1.04608575,29.43361 0.789772635,29.172199 L0.789772635,29.172199 L0.789772635,29.172199 C0.533459524,28.9107883 0.337752437,28.6009681 0.202651373,28.2427385 L0.202651373,28.2427385 L0.202651373,28.2427385 C0.0675504578,27.884509 0,27.5105464 0,27.1208507 L0,27.1208507 L0,27.1208507 C0,26.7287344 0.0675504578,26.3584025 0.202651373,26.0098549 L0.202651373,26.0098549 L0.202651373,26.0098549 C0.337752437,25.6613071 0.527146409,25.3581432 0.770833289,25.1003631 L0.770833289,25.1003631 L0.770833289,25.1003631 C1.01452017,24.842583 1.30492421,24.6392634 1.6420454,24.4904046 L1.6420454,24.4904046 L1.6420454,24.4904046 C1.97916659,24.3415457 2.34469691,24.2671163 2.73863636,24.2671163 L2.73863636,24.2671163 L2.73863636,24.2671163 C3.08964642,24.2671163 3.39267669,24.3149205 3.64772716,24.410529 L3.64772716,24.410529 L3.64772716,24.410529 C3.90277778,24.5061376 4.11931817,24.6198997 4.29734833,24.7518154 L4.29734833,24.7518154 L4.29734833,24.7518154 C4.47537863,24.883731 4.6287878,25.0271438 4.75757582,25.1820539 L4.75757582,25.1820539 L5.15909087,25.1820539 L5.15909087,25.8283194 Z M8.46969684,29.9891078 L8.46969684,29.9891078 L8.46969684,29.9891078 C8.07323226,29.9891078 7.71085854,29.918309 7.38257566,29.7767115 L7.38257566,29.7767115 L7.38257566,29.7767115 C7.05429293,29.6351141 6.76136362,29.43361 6.50378773,29.172199 L6.50378773,29.172199 L6.50378773,29.172199 C6.24621198,28.9107883 6.05050496,28.6009681 5.91666669,28.2427385 L5.91666669,28.2427385 L5.91666669,28.2427385 C5.78282826,27.884509 5.71590905,27.5129668 5.71590905,27.1281119 L5.71590905,27.1281119 L5.71590905,27.1281119 C5.71590905,26.7311549 5.78345958,26.3584025 5.91856064,26.0098549 L5.91856064,26.0098549 L5.91856064,26.0098549 C6.05366156,25.6613071 6.24305546,25.3581432 6.48674234,25.1003631 L6.48674234,25.1003631 L6.48674234,25.1003631 C6.73042922,24.842583 7.02083325,24.6392634 7.35795445,24.4904046 L7.35795445,24.4904046 L7.35795445,24.4904046 C7.69507564,24.3415457 8.06565644,24.2671163 8.46969684,24.2671163 L8.46969684,24.2671163 L8.46969684,24.2671163 C8.87626252,24.2671163 9.24873728,24.3415457 9.5871211,24.4904046 L9.5871211,24.4904046 L9.5871211,24.4904046 C9.92550493,24.6392634 10.215909,24.842583 10.4583332,25.1003631 L10.4583332,25.1003631 L10.4583332,25.1003631 C10.7007575,25.3581432 10.8888888,25.6613071 11.0227272,26.0098549 L11.0227272,26.0098549 L11.0227272,26.0098549 C11.1565656,26.3584025 11.2234849,26.7311549 11.2234849,27.1281119 L11.2234849,27.1281119 L11.2234849,27.1281119 C11.2234849,27.5250691 11.1559343,27.8972164 11.0208333,28.2445538 L11.0208333,28.2445538 L11.0208333,28.2445538 C10.8857323,28.5918914 10.6963384,28.8950553 10.4526516,29.1540456 L10.4526516,29.1540456 L10.4526516,29.1540456 C10.2089647,29.413036 9.91856065,29.6169606 9.58143946,29.7658195 L9.58143946,29.7658195 L9.58143946,29.7658195 C9.24431812,29.9146784 8.87373724,29.9891078 8.46969684,29.9891078 Z M8.46969684,29.3137966 L8.46969684,29.3137966 L8.46969684,29.3137966 C8.77020198,29.3137966 9.04229799,29.2544951 9.28598487,29.1358921 L9.28598487,29.1358921 L9.28598487,29.1358921 C9.52967175,29.0172891 9.73737375,28.8581432 9.90909086,28.6584544 L9.90909086,28.6584544 L9.90909086,28.6584544 C10.080808,28.4587655 10.2133838,28.2270054 10.3068182,27.9631741 L10.3068182,27.9631741 L10.3068182,27.9631741 C10.4002525,27.699343 10.4469697,27.420989 10.4469697,27.1281119 L10.4469697,27.1281119 L10.4469697,27.1281119 C10.4469697,26.8279737 10.3958333,26.5381224 10.2935605,26.2585581 L10.2935605,26.2585581 L10.2935605,26.2585581 C10.1912878,25.9789938 10.048611,25.7423928 9.8655303,25.5487551 L9.8655303,25.5487551 L9.8655303,25.5487551 C9.68244945,25.3551176 9.4696969,25.2056536 9.22727265,25.1003631 L9.22727265,25.1003631 L9.22727265,25.1003631 C8.98484841,24.9950726 8.73232314,24.9424273 8.46969684,24.9424273 L8.46969684,24.9424273 L8.46969684,24.9424273 C8.16919185,24.9424273 7.8964646,25.0017289 7.65151508,25.120332 L7.65151508,25.120332 L7.65151508,25.120332 C7.40656556,25.238935 7.19823224,25.3980809 7.02651512,25.5977696 L7.02651512,25.5977696 L7.02651512,25.5977696 C6.85479801,25.7974584 6.72222222,26.0298236 6.62878776,26.2948651 L6.62878776,26.2948651 L6.62878776,26.2948651 C6.53535345,26.5599066 6.48863629,26.8376555 6.48863629,27.1281119 L6.48863629,27.1281119 L6.48863629,27.1281119 C6.48863629,27.4669779 6.540404,27.7689315 6.64393942,28.0339729 L6.64393942,28.0339729 L6.64393942,28.0339729 C6.74747468,28.2990144 6.88446963,28.5192772 7.05492425,28.6947614 L7.05492425,28.6947614 L7.05492425,28.6947614 C7.22537873,28.8702455 7.42866157,29.0172891 7.66477277,29.1358921 L7.66477277,29.1358921 L7.66477277,29.1358921 C7.90088383,29.2544951 8.16919185,29.3137966 8.46969684,29.3137966 Z M15.5871212,25.0041494 L15.5871212,24.3760374 L17.4507576,24.3760374 L17.4507576,25.0041494 L16.9621212,25.0041494 L16.9621212,29.8801867 L15.9924242,29.8801867 L13.3219696,25.31639 L13.3219696,29.2557054 L13.9128788,29.2557054 L13.9128788,29.8801867 L12.0492424,29.8801867 L12.0492424,29.2557054 L12.5795454,29.2557054 L12.5795454,25.0041494 L12.0340908,25.0041494 L12.0340908,24.3687759 L13.5795455,24.3687759 L16.2007574,28.8890042 L16.2310605,28.7147302 L16.2310605,25.0041494 L15.5871212,25.0041494 Z M18.1856061,25.0041494 L18.1856061,24.3760374 L22.2992424,24.3760374 L22.2992424,25.93361 L21.5227273,25.93361 L21.5227273,25.0041494 L19.4734847,25.0041494 L19.4734847,26.7650415 L21.1969696,26.7650415 L21.1969696,27.3895228 L19.4734847,27.3895228 L19.4734847,29.2557054 L21.5227273,29.2557054 L21.5227273,28.3262448 L22.2992424,28.3262448 L22.2992424,29.8801867 L18.1856061,29.8801867 L18.1856061,29.2557054 L18.7310606,29.2557054 L18.7310606,25.0041494 L18.1856061,25.0041494 Z M26.1136364,25.0041494 L26.1136364,24.3760374 L27.9772728,24.3760374 L27.9772728,25.0041494 L27.5530302,25.0041494 L25.9999999,27.0700207 L27.621212,29.2557054 L27.9772728,29.2557054 L27.9772728,29.8801867 L26.1136364,29.8801867 L26.1136364,29.2557054 L26.814394,29.2557054 L25.5871211,27.6182572 L24.3522726,29.2557054 L25.0227273,29.2557054 L25.0227273,29.8801867 L23.1590908,29.8801867 L23.1590908,29.2557054 L23.5340909,29.2557054 L25.1704544,27.06639 L23.6249999,25.0041494 L23.1590908,25.0041494 L23.1590908,24.3760374 L25.0227273,24.3760374 L25.0227273,25.0041494 L24.4696969,25.0041494 L25.5871211,26.5108921 L26.7159091,25.0041494 L26.1136364,25.0041494 Z M32.1363636,29.8801867 L32.1363636,29.2557054 L32.6136362,29.2557054 L32.1590908,28.0067428 L29.9507575,28.0067428 L29.5075758,29.2557054 L30.0984848,29.2557054 L30.0984848,29.8801867 L28.2348484,29.8801867 L28.2348484,29.2557054 L28.7348484,29.2557054 L30.5227273,24.3760374 L31.6401516,24.3760374 L33.4242424,29.2557054 L33.9999999,29.2557054 L33.9999999,29.8801867 L32.1363636,29.8801867 Z M31.0454545,24.9424273 L30.1666666,27.4040457 L31.9393939,27.4040457 L31.0454545,24.9424273 Z M30.6060605,23 L30.6060605,23 L30.6060605,23 C30.7323231,23 30.8415403,23.0199689 30.9337122,23.0599068 L30.9337122,23.0599068 L30.9337122,23.0599068 C31.0258838,23.0998445 31.1117424,23.1434129 31.1912878,23.1906121 L31.1912878,23.1906121 L31.1912878,23.1906121 C31.2708333,23.2378113 31.3497474,23.2807746 31.4280302,23.319502 L31.4280302,23.319502 L31.4280302,23.319502 C31.5063132,23.3582296 31.594697,23.3775934 31.6931817,23.3775934 L31.6931817,23.3775934 L31.6931817,23.3775934 C31.7638888,23.3775934 31.832702,23.3545989 31.8996212,23.30861 L31.8996212,23.30861 L31.8996212,23.30861 C31.9665404,23.2626211 32.0113636,23.1887967 32.0340908,23.0871369 L32.0340908,23.0871369 L32.4848485,23.2142117 L32.4848485,23.2142117 C32.4343435,23.4199517 32.3358586,23.5790976 32.1893939,23.6916493 L32.1893939,23.6916493 L32.1893939,23.6916493 C32.0429293,23.8042012 31.8674242,23.8604772 31.6628788,23.8604772 L31.6628788,23.8604772 L31.6628788,23.8604772 C31.5214646,23.8604772 31.4015151,23.8417185 31.3030304,23.8042012 L31.3030304,23.8042012 L31.3030304,23.8042012 C31.2045455,23.7666839 31.1148991,23.7261411 31.034091,23.6825727 L31.034091,23.6825727 L31.034091,23.6825727 C30.9532829,23.6390043 30.8775253,23.5984614 30.8068182,23.560944 L30.8068182,23.560944 L30.8068182,23.560944 C30.736111,23.5234267 30.6590909,23.504668 30.5757577,23.504668 L30.5757577,23.504668 L30.5757577,23.504668 C30.5378788,23.504668 30.4993687,23.5070885 30.4602272,23.5119295 L30.4602272,23.5119295 L30.4602272,23.5119295 C30.4210859,23.5167704 30.3825758,23.5282677 30.3446969,23.5464213 L30.3446969,23.5464213 L30.3446969,23.5464213 C30.3068181,23.5645747 30.2720959,23.5924101 30.2405302,23.6299274 L30.2405302,23.6299274 L30.2405302,23.6299274 C30.2089646,23.6674448 30.1843433,23.72009 30.1666666,23.787863 L30.1666666,23.787863 L29.7537878,23.5954356 L29.7537878,23.5954356 C29.7866161,23.4816736 29.8333333,23.3866702 29.8939395,23.3104254 L29.8939395,23.3104254 L29.8939395,23.3104254 C29.9545455,23.2341806 30.0227273,23.1730637 30.0984848,23.1270748 L30.0984848,23.1270748 L30.0984848,23.1270748 C30.1742425,23.0810859 30.2556819,23.0484095 30.342803,23.0290457 L30.342803,23.0290457 L30.342803,23.0290457 C30.4299243,23.0096819 30.5176768,23 30.6060605,23 Z M37.064394,29.9891078 L37.064394,29.9891078 L37.064394,29.9891078 C36.6679292,29.9891078 36.3055555,29.918309 35.9772728,29.7767115 L35.9772728,29.7767115 L35.9772728,29.7767115 C35.6489899,29.6351141 35.3560606,29.43361 35.0984848,29.172199 L35.0984848,29.172199 L35.0984848,29.172199 C34.8409091,28.9107883 34.645202,28.6009681 34.5113636,28.2427385 L34.5113636,28.2427385 L34.5113636,28.2427385 C34.3775252,27.884509 34.3106059,27.5129668 34.3106059,27.1281119 L34.3106059,27.1281119 L34.3106059,27.1281119 C34.3106059,26.7311549 34.3781565,26.3584025 34.5132575,26.0098549 L34.5132575,26.0098549 L34.5132575,26.0098549 C34.6483586,25.6613071 34.8377526,25.3581432 35.0814395,25.1003631 L35.0814395,25.1003631 L35.0814395,25.1003631 C35.3251263,24.842583 35.6155304,24.6392634 35.9526516,24.4904046 L35.9526516,24.4904046 L35.9526516,24.4904046 C36.2897728,24.3415457 36.6603536,24.2671163 37.064394,24.2671163 L37.064394,24.2671163 L37.064394,24.2671163 C37.4709596,24.2671163 37.8434344,24.3415457 38.1818182,24.4904046 L38.1818182,24.4904046 L38.1818182,24.4904046 C38.5202021,24.6392634 38.8106061,24.842583 39.0530303,25.1003631 L39.0530303,25.1003631 L39.0530303,25.1003631 C39.2954546,25.3581432 39.4835859,25.6613071 39.6174243,26.0098549 L39.6174243,26.0098549 L39.6174243,26.0098549 C39.7512626,26.3584025 39.8181818,26.7311549 39.8181818,27.1281119 L39.8181818,27.1281119 L39.8181818,27.1281119 C39.8181818,27.5250691 39.7506313,27.8972164 39.6155304,28.2445538 L39.6155304,28.2445538 L39.6155304,28.2445538 C39.4804293,28.5918914 39.2910353,28.8950553 39.0473485,29.1540456 L39.0473485,29.1540456 L39.0473485,29.1540456 C38.8036616,29.413036 38.5132575,29.6169606 38.1761364,29.7658195 L38.1761364,29.7658195 L38.1761364,29.7658195 C37.8390152,29.9146784 37.4684344,29.9891078 37.064394,29.9891078 Z M37.064394,29.3137966 L37.064394,29.3137966 L37.064394,29.3137966 C37.3648989,29.3137966 37.6369949,29.2544951 37.8806818,29.1358921 L37.8806818,29.1358921 L37.8806818,29.1358921 C38.1243686,29.0172891 38.3320706,28.8581432 38.5037878,28.6584544 L38.5037878,28.6584544 L38.5037878,28.6584544 C38.675505,28.4587655 38.8080808,28.2270054 38.9015151,27.9631741 L38.9015151,27.9631741 L38.9015151,27.9631741 C38.9949494,27.699343 39.0416666,27.420989 39.0416666,27.1281119 L39.0416666,27.1281119 L39.0416666,27.1281119 C39.0416666,26.8279737 38.9905303,26.5381224 38.8882576,26.2585581 L38.8882576,26.2585581 L38.8882576,26.2585581 C38.7859849,25.9789938 38.6433081,25.7423928 38.4602272,25.5487551 L38.4602272,25.5487551 L38.4602272,25.5487551 C38.2771465,25.3551176 38.064394,25.2056536 37.8219698,25.1003631 L37.8219698,25.1003631 L37.8219698,25.1003631 C37.5795455,24.9950726 37.3270203,24.9424273 37.064394,24.9424273 L37.064394,24.9424273 L37.064394,24.9424273 C36.7638888,24.9424273 36.4911616,25.0017289 36.2462122,25.120332 L36.2462122,25.120332 L36.2462122,25.120332 C36.0012627,25.238935 35.7929293,25.3980809 35.621212,25.5977696 L35.621212,25.5977696 L35.621212,25.5977696 C35.4494949,25.7974584 35.3169192,26.0298236 35.2234849,26.2948651 L35.2234849,26.2948651 L35.2234849,26.2948651 C35.1300506,26.5599066 35.0833334,26.8376555 35.0833334,27.1281119 L35.0833334,27.1281119 L35.0833334,27.1281119 C35.0833334,27.4669779 35.135101,27.7689315 35.2386363,28.0339729 L35.2386363,28.0339729 L35.2386363,28.0339729 C35.3421717,28.2990144 35.4791667,28.5192772 35.6496212,28.6947614 L35.6496212,28.6947614 L35.6496212,28.6947614 C35.8200758,28.8702455 36.0233586,29.0172891 36.2594697,29.1358921 L36.2594697,29.1358921 L36.2594697,29.1358921 C36.4955807,29.2544951 36.7638888,29.3137966 37.064394,29.3137966 Z M45.2689393,25.8718879 L45.2689393,25.8718879 C45.2689393,25.6588865 45.2285353,25.4991355 45.1477272,25.3926348 L45.1477272,25.3926348 L45.1477272,25.3926348 C45.0669191,25.2861342 44.9779039,25.2044433 44.8806817,25.1475623 L44.8806817,25.1475623 L44.8806817,25.1475623 C44.7834595,25.0906812 44.6767676,25.0471127 44.5606061,25.0168568 L44.5606061,25.0168568 L44.5606061,25.0168568 C44.4444445,24.9866009 44.3282828,24.971473 44.2121212,24.971473 L44.2121212,24.971473 L44.2121212,24.971473 C44.020202,24.971473 43.8522728,24.9926521 43.7083334,25.0350105 L43.7083334,25.0350105 L43.7083334,25.0350105 C43.564394,25.0773687 43.4450758,25.1348548 43.3503789,25.2074689 L43.3503789,25.2074689 L43.3503789,25.2074689 C43.2556818,25.2800829 43.1843433,25.3647994 43.1363635,25.4616182 L43.1363635,25.4616182 L43.1363635,25.4616182 C43.0883838,25.5584371 43.0643939,25.6600968 43.0643939,25.7665975 L43.0643939,25.7665975 L43.0643939,25.7665975 C43.0643939,25.9263486 43.0940656,26.0552386 43.1534092,26.1532675 L43.1534092,26.1532675 L43.1534092,26.1532675 C43.2127525,26.2512966 43.2878788,26.3299619 43.3787878,26.3892634 L43.3787878,26.3892634 L43.3787878,26.3892634 C43.469697,26.4485649 43.5700758,26.495159 43.6799242,26.5290456 L43.6799242,26.5290456 L43.6799242,26.5290456 C43.7897727,26.5629322 43.895202,26.5968188 43.9962121,26.6307054 L43.9962121,26.6307054 L44.7613636,26.870332 L44.7613636,26.870332 C44.9911616,26.9405256 45.1938131,27.0204011 45.3693181,27.1099584 L45.3693181,27.1099584 L45.3693181,27.1099584 C45.5448231,27.1995158 45.6919191,27.3054114 45.810606,27.4276453 L45.810606,27.4276453 L45.810606,27.4276453 C45.929293,27.549879 46.0195708,27.6908714 46.0814394,27.8506223 L46.0814394,27.8506223 L46.0814394,27.8506223 C46.1433081,28.0103734 46.1742424,28.1955394 46.1742424,28.4061202 L46.1742424,28.4061202 L46.1742424,28.4061202 C46.1742424,28.6336445 46.1256313,28.8442254 46.0284091,29.037863 L46.0284091,29.037863 L46.0284091,29.037863 C45.9311868,29.2315007 45.7954545,29.3997234 45.6212121,29.5425312 L45.6212121,29.5425312 L45.6212121,29.5425312 C45.4469698,29.6853388 45.2392678,29.7972855 44.9981061,29.8783713 L44.9981061,29.8783713 L44.9981061,29.8783713 C44.7569445,29.9594571 44.4924243,30 44.2045454,30 L44.2045454,30 L44.2045454,30 C43.9090909,30 43.6565657,29.9679288 43.4469698,29.9037863 L43.4469698,29.9037863 L43.4469698,29.9037863 C43.2373738,29.8396438 43.0612374,29.7537171 42.9185605,29.6460062 L42.9185605,29.6460062 L42.9185605,29.6460062 C42.7758838,29.5382953 42.6616162,29.4154564 42.5757577,29.2774896 L42.5757577,29.2774896 L42.5757577,29.2774896 C42.489899,29.1395228 42.4229798,28.9979253 42.375,28.852697 L42.375,28.852697 L42.0871213,28.852697 L42.0871213,28.2282157 L43.0416666,28.2282157 L43.0416666,28.2282157 C43.0416666,28.496888 43.0713384,28.6868949 43.1306819,28.7982366 L43.1306819,28.7982366 L43.1306819,28.7982366 C43.1900253,28.9095781 43.2727272,29.0021611 43.3787878,29.0759855 L43.3787878,29.0759855 L43.3787878,29.0759855 C43.4848485,29.1498098 43.6111111,29.2054806 43.7575758,29.2429978 L43.7575758,29.2429978 L43.7575758,29.2429978 C43.9040405,29.2805152 44.0656566,29.2992738 44.2424243,29.2992738 L44.2424243,29.2992738 L44.2424243,29.2992738 C44.4141414,29.2992738 44.5688131,29.27991 44.7064395,29.2411824 L44.7064395,29.2411824 L44.7064395,29.2411824 C44.8440657,29.202455 44.9614899,29.1461791 45.0587121,29.0723548 L45.0587121,29.0723548 L45.0587121,29.0723548 C45.1559343,28.9985305 45.2304293,28.908973 45.282197,28.8036825 L45.282197,28.8036825 L45.282197,28.8036825 C45.3339647,28.6983921 45.3598486,28.5791839 45.3598486,28.4460581 L45.3598486,28.4460581 L45.3598486,28.4460581 C45.3598486,28.2984094 45.3276516,28.17315 45.2632576,28.0702801 L45.2632576,28.0702801 L45.2632576,28.0702801 C45.1988637,27.9674102 45.1161617,27.8796681 45.0151515,27.8070539 L45.0151515,27.8070539 L45.0151515,27.8070539 C44.9141414,27.7344398 44.8036616,27.6751383 44.6837122,27.6291494 L44.6837122,27.6291494 L44.6837122,27.6291494 C44.5637627,27.5831605 44.4482323,27.5432227 44.3371212,27.5093361 L44.3371212,27.5093361 L43.5075757,27.2842324 L43.5075757,27.2842324 C43.3257575,27.230982 43.1597222,27.1632088 43.0094698,27.0809128 L43.0094698,27.0809128 L43.0094698,27.0809128 C42.8592172,26.9986169 42.7304293,26.8981673 42.6231062,26.7795642 L42.6231062,26.7795642 L42.6231062,26.7795642 C42.5157828,26.6609612 42.4330808,26.5223893 42.375,26.3638485 L42.375,26.3638485 L42.375,26.3638485 C42.3169191,26.2053078 42.2878787,26.0219572 42.2878787,25.8137967 L42.2878787,25.8137967 L42.2878787,25.8137967 C42.2878787,25.6032158 42.330808,25.4059475 42.4166666,25.2219916 L42.4166666,25.2219916 L42.4166666,25.2219916 C42.5025253,25.0380359 42.6287879,24.8770746 42.7954544,24.7391078 L42.7954544,24.7391078 L42.7954544,24.7391078 C42.9621212,24.601141 43.1660353,24.492825 43.4071969,24.4141597 L43.4071969,24.4141597 L43.4071969,24.4141597 C43.6483585,24.3354944 43.9242424,24.2961618 44.2348485,24.2961618 L44.2348485,24.2961618 L44.2348485,24.2961618 C44.4393939,24.2961618 44.6281565,24.3191562 44.8011364,24.3651452 L44.8011364,24.3651452 L44.8011364,24.3651452 C44.9741162,24.4111341 45.1306818,24.4758817 45.2708333,24.559388 L45.2708333,24.559388 L45.2708333,24.559388 C45.4109849,24.6428943 45.5347223,24.7433438 45.6420454,24.8607365 L45.6420454,24.8607365 L45.6420454,24.8607365 C45.7493686,24.9781293 45.8396464,25.1070193 45.9128788,25.2474066 L45.9128788,25.2474066 L46.1969697,25.2474066 L46.1969697,25.8718879 L45.2689393,25.8718879 Z M46.909091,25.0041494 L46.909091,24.3760374 L49.2310606,24.3760374 L49.2310606,24.3760374 C49.4886364,24.3760374 49.7253788,24.4081086 49.941288,24.4722511 L49.941288,24.4722511 L49.941288,24.4722511 C50.1571969,24.5363936 50.3440656,24.6307919 50.501894,24.7554462 L50.501894,24.7554462 L50.501894,24.7554462 C50.6597223,24.8801002 50.782197,25.0356154 50.8693181,25.2219916 L50.8693181,25.2219916 L50.8693181,25.2219916 C50.9564394,25.4083678 51,25.6225795 51,25.8646266 L51,25.8646266 L51,25.8646266 C51,26.0655256 50.9570707,26.2549274 50.8712121,26.4328319 L50.8712121,26.4328319 L50.8712121,26.4328319 C50.7853536,26.6107365 50.6641414,26.7662517 50.5075757,26.8993775 L50.5075757,26.8993775 L50.5075757,26.8993775 C50.3510101,27.0325035 50.1635101,27.137794 49.9450759,27.215249 L49.9450759,27.215249 L49.9450759,27.215249 C49.7266414,27.2927041 49.4835859,27.3314316 49.2159092,27.3314316 L49.2159092,27.3314316 L48.1969698,27.3314316 L48.1969698,29.2557054 L48.7727273,29.2557054 L48.7727273,29.8801867 L46.909091,29.8801867 L46.909091,29.2557054 L47.4545454,29.2557054 L47.4545454,25.0041494 L46.909091,25.0041494 Z M49.1363637,25.0041494 L48.1969698,25.0041494 L48.1969698,26.7359958 L49.2310606,26.7359958 L49.2310606,26.7359958 C49.375,26.7359958 49.5069445,26.7172372 49.626894,26.67972 L49.626894,26.67972 L49.626894,26.67972 C49.7468434,26.6422026 49.8503788,26.5871369 49.9375,26.5145228 L49.9375,26.5145228 L49.9375,26.5145228 C50.0246212,26.4419088 50.0928029,26.3511412 50.1420454,26.24222 L50.1420454,26.24222 L50.1420454,26.24222 C50.1912878,26.1332988 50.215909,26.0074344 50.215909,25.8646266 L50.215909,25.8646266 L50.215909,25.8646266 C50.215909,25.5935339 50.1300505,25.3823478 49.9583333,25.2310685 L49.9583333,25.2310685 L49.9583333,25.2310685 C49.7866162,25.0797891 49.5126263,25.0041494 49.1363637,25.0041494 L49.1363637,25.0041494 Z" id="Shape"></path>
                    </g>
                </g>
            </g>
        </g>
    </g>
</svg>