<?xml version="1.0" encoding="UTF-8"?>
<svg width="148px" height="114px" viewBox="0 0 148 114" version="1.1" xmlns="http://www.w3.org/2000/svg" xmlns:xlink="http://www.w3.org/1999/xlink">
    <!-- Generator: Sketch 53.2 (72643) - https://sketchapp.com -->
    <title>arr-jagged</title>
    <desc>Created with Sketch.</desc>
    <g id="Page-1" stroke="none" stroke-width="1" fill="none" fill-rule="evenodd">
        <g id="04---Serviços" transform="translate(-438.000000, -2284.000000)" fill="#BD1F1F" fill-rule="nonzero">
            <g id="arr-jagged" transform="translate(437.000000, 2284.000000)">
                <path d="M147.241077,0.21945 C146.893846,0.0741 146.523846,0 146.153846,0 L106.307692,0 C104.733769,0 103.461538,1.27395 103.461538,2.85 C103.461538,4.42605 104.733769,5.7 106.307692,5.7 L139.283231,5.7 L83.5384615,61.5201 L68.4737692,46.43505 C67.3609231,45.3207 65.5621538,45.3207 64.4493077,46.43505 L1.83392308,109.13505 C0.721076923,110.2494 0.721076923,112.0506 1.83392308,113.16495 C2.38892308,113.7207 3.11753846,114 3.84615385,114 C4.57476923,114 5.30338462,113.7207 5.85838462,113.16495 L66.4615385,52.4799 L81.5262308,67.56495 C82.6390769,68.6793 84.4378462,68.6793 85.5506923,67.56495 L143.307692,9.7299 L143.307692,42.75 C143.307692,44.32605 144.579923,45.6 146.153846,45.6 C147.727769,45.6 149,44.32605 149,42.75 L149,2.85 C149,2.4795 148.926,2.109 148.780846,1.7613 C148.493385,1.06305 147.938385,0.5073 147.241077,0.21945 L147.241077,0.21945 Z" id="Shape"></path>
            </g>
        </g>
    </g>
</svg>