<?xml version="1.0" encoding="UTF-8"?>
<svg width="30px" height="30px" viewBox="0 0 30 30" version="1.1" xmlns="http://www.w3.org/2000/svg" xmlns:xlink="http://www.w3.org/1999/xlink">
    <!-- Generator: Sketch 53.2 (72643) - https://sketchapp.com -->
    <title>bra-instagram</title>
    <desc>Created with Sketch.</desc>
    <g id="Symbols" stroke="none" stroke-width="1" fill="none" fill-rule="evenodd">
        <g id="footer" transform="translate(-527.000000, -98.000000)" fill="#000000" fill-rule="nonzero">
            <g id="social-medias">
                <g transform="translate(407.000000, 98.000000)">
                    <g id="bra-instagram" transform="translate(120.000000, 0.000000)">
                        <path d="M15,0 C6.72888889,0 0,6.72888889 0,15 C0,23.2711111 6.72888889,30 15,30 C23.2711111,30 30,23.2711111 30,15 C30,6.72888889 23.2711111,0 15,0 L15,0 Z M15,28.8888889 C7.34166667,28.8888889 1.11111111,22.6583333 1.11111111,15 C1.11111111,7.34166667 7.34166667,1.11111111 15,1.11111111 C22.6583333,1.11111111 28.8888889,7.34166667 28.8888889,15 C28.8888889,22.6583333 22.6583333,28.8888889 15,28.8888889 L15,28.8888889 Z" id="Shape"></path>
                        <path d="M21.4105556,6.66666667 L8.58944444,6.66666667 C7.52777778,6.66666667 6.66666667,7.52722222 6.66666667,8.58944444 L6.66666667,21.4094444 C6.66666667,22.4727778 7.52777778,23.3333333 8.58944444,23.3333333 L21.4105556,23.3333333 C22.4727778,23.3333333 23.3333333,22.4727778 23.3333333,21.4094444 L23.3333333,8.58944444 C23.3333333,7.52722222 22.4727778,6.66666667 21.4105556,6.66666667 L21.4105556,6.66666667 Z M15,11.7944444 C16.7705556,11.7944444 18.205,13.23 18.205,15 C18.205,16.77 16.7705556,18.2055556 15,18.2055556 C13.2294444,18.2055556 11.795,16.77 11.795,15 C11.795,13.23 13.2294444,11.7944444 15,11.7944444 L15,11.7944444 Z M21.4105556,20.7694444 C21.4105556,21.1233333 21.1233333,21.4094444 20.7688889,21.4094444 L9.23111111,21.4094444 C8.87666667,21.4094444 8.58944444,21.1227778 8.58944444,20.7694444 L8.58944444,13.7177778 L10.0405556,13.7177778 C9.935,14.1272222 9.87166667,14.5566667 9.87166667,15.0005556 C9.87166667,17.8333333 12.1683333,20.1283333 15,20.1283333 C17.8316667,20.1283333 20.1283333,17.8327778 20.1283333,15.0005556 C20.1283333,14.5566667 20.0655556,14.1277778 19.96,13.7177778 L21.4111111,13.7177778 L21.4111111,20.7694444 L21.4105556,20.7694444 Z M21.4105556,11.1533333 C21.4105556,11.5066667 21.1233333,11.7944444 20.7688889,11.7944444 L18.8472222,11.7944444 C18.4927778,11.7944444 18.205,11.5061111 18.205,11.1533333 L18.205,9.23055556 C18.205,8.87555556 18.4922222,8.58944444 18.8472222,8.58944444 L20.7688889,8.58944444 C21.1233333,8.58944444 21.4105556,8.87611111 21.4105556,9.23055556 L21.4105556,11.1533333 L21.4105556,11.1533333 Z" id="Shape"></path>
                    </g>
                </g>
            </g>
        </g>
    </g>
</svg>