<?xml version="1.0" encoding="UTF-8"?>
<svg width="30px" height="30px" viewBox="0 0 30 30" version="1.1" xmlns="http://www.w3.org/2000/svg" xmlns:xlink="http://www.w3.org/1999/xlink">
    <!-- Generator: Sketch 53.2 (72643) - https://sketchapp.com -->
    <title>bra-linkedin</title>
    <desc>Created with Sketch.</desc>
    <g id="Symbols" stroke="none" stroke-width="1" fill="none" fill-rule="evenodd">
        <g id="footer" transform="translate(-587.000000, -98.000000)" fill="#000000" fill-rule="nonzero">
            <g id="social-medias">
                <g transform="translate(407.000000, 98.000000)">
                    <g id="bra-linkedin" transform="translate(180.000000, 0.000000)">
                        <path d="M15,0 C6.72888889,0 0,6.72888889 0,15 C0,23.2711111 6.72888889,30 15,30 C23.2711111,30 30,23.2711111 30,15 C30,6.72888889 23.2711111,0 15,0 L15,0 Z M15,28.8888889 C7.34166667,28.8888889 1.11111111,22.6583333 1.11111111,15 C1.11111111,7.34166667 7.34166667,1.11111111 15,1.11111111 C22.6583333,1.11111111 28.8888889,7.34166667 28.8888889,15 C28.8888889,22.6583333 22.6583333,28.8888889 15,28.8888889 L15,28.8888889 Z" id="Shape"></path>
                        <rect id="Rectangle-path" x="7.77777778" y="11.1294444" width="3.33333333" height="9.98166667"></rect>
                        <path d="M9.45333333,5.85388889 C8.27277778,5.85388889 7.5,6.62944444 7.5,7.64833333 C7.5,8.64555556 8.24888889,9.44388889 9.40833333,9.44388889 L9.43111111,9.44388889 C10.6355556,9.44388889 11.3844444,8.645 11.3844444,7.64833333 C11.3627778,6.63 10.6355556,5.85388889 9.45333333,5.85388889 L9.45333333,5.85388889 Z" id="Shape"></path>
                        <path d="M19.6355556,11.1111111 C17.7722222,11.1111111 17.1216667,12.0922222 16.6666667,12.8016667 L16.6666667,11.1294444 L13.3333333,11.1294444 L13.3333333,21.1111111 L16.6894444,21.1111111 C16.6894444,21.1111111 16.6666667,15.1377778 16.6666667,15 C16.6666667,14.08 17.4133333,13.3333333 18.3333333,13.3333333 C19.2533333,13.3333333 20,14.08 20,15 L20,21.1111111 L23.3333333,21.1111111 L23.3333333,15.7272222 C23.3333333,12.5355556 21.9077778,11.1111111 19.6355556,11.1111111 L19.6355556,11.1111111 Z" id="Shape"></path>
                    </g>
                </g>
            </g>
        </g>
    </g>
</svg>