<?xml version="1.0" encoding="UTF-8"?>
<svg width="60px" height="54px" viewBox="0 0 60 54" version="1.1" xmlns="http://www.w3.org/2000/svg" xmlns:xlink="http://www.w3.org/1999/xlink">
    <!-- Generator: Sketch 53.2 (72643) - https://sketchapp.com -->
    <title>SVGlogo</title>
    <desc>Created with Sketch.</desc>
    <g id="Page-1" stroke="none" stroke-width="1" fill="none" fill-rule="evenodd">
        <g id="A4" transform="translate(-23.000000, -26.000000)">
            <g id="Group" transform="translate(12.000000, 11.000000)">
                <g id="SVGlogo" transform="translate(11.000000, 15.000000)">
                    <path d="M30,53.426572 C24.7380995,53.3573125 20.0340337,51.9792523 15.8878021,49.2934098 C11.7425848,46.6075674 8.56191406,43.0356106 6.34578989,38.5775395 L5.70985852,38.5775395 C7.94322478,43.2097779 11.1928642,46.9212719 15.4597908,49.7110037 C19.7267175,52.5007356 24.5737918,53.9307405 30,54 C35.4262082,53.9307405 40.2692255,52.5007356 44.527024,49.7110037 C48.7939505,46.9212719 52.0486613,43.2097779 54.2901415,38.5775395 L53.641025,38.5775395 C51.434029,43.0356106 48.2574152,46.6075674 44.1121979,49.2934098 C39.9578524,51.9792523 35.2537865,53.3573125 30,53.426572 M3.77569419,24.8886037 L3.19148936,24.8886037 C3.59820134,20.2034024 5.0262576,15.9928325 7.47565813,12.2548569 C9.93317262,8.51789941 13.1138434,5.55400048 17.0176704,3.36417802 C20.9123693,1.17333736 25.2401506,0.052962884 30,0 C34.7517354,0.052962884 39.0785026,1.17333736 42.9823296,3.36417802 C46.8861566,5.55400048 50.0617562,8.51789941 52.5111568,12.2548569 C54.960557,15.9928325 56.3926705,20.2034024 56.8085106,24.8886037 L56.2243058,24.8886037 C55.8175938,20.3083102 54.4159078,16.1965369 52.0182338,12.5553207 C49.6124458,8.90493777 46.5048007,6.00622425 42.6963128,3.85917985 C38.8797107,1.72130207 34.6472684,0.626390843 30,0.574446155 C25.3527316,0.626390843 21.1202893,1.72130207 17.3036872,3.85917985 C13.4860712,6.00622425 10.3794402,8.90493777 7.9817662,12.5553207 C5.5840922,16.2057036 4.18240617,20.3164584 3.77569419,24.8886037" id="Shape" fill="#B73F2F"></path>
                    <path d="M26.802836,17.7683259 L25.6393951,17.7683259 L25.6393951,19.8020997 L26.802836,19.8020997 L26.802836,17.7683259 M26.802836,23.3523455 L26.802836,21.331732 L25.6393951,21.331732 L25.6393951,23.3523455 L26.802836,23.3523455 M45.8918466,25.8922846 L45.8918466,23.8585109 L44.7284057,23.8585109 L44.7284057,25.8922846 L45.8918466,25.8922846 M34.3340472,13.8414931 L33.1706062,13.8414931 L33.1706062,15.8762788 L34.3340472,15.8762788 L34.3340472,13.8414931 M29.99285,4.44705882 C23.8395859,4.58574814 18.6403636,6.5942134 14.3951833,10.4724546 C10.1500031,14.3425969 7.69237482,19.2584776 7.0212766,25.2190841 L13.9631067,25.2190841 L13.9631067,18.5063156 L19.4943026,18.5063156 L19.4943026,25.2190841 L20.6577435,25.2190841 L20.6577435,15.6302823 L23.037741,15.6302823 L23.037741,21.383361 L24.2011819,21.383361 L24.2011819,9.56540577 L28.254328,9.56540577 L28.254328,23.4697757 L29.417769,23.4697757 L29.417769,12.7016079 L35.601677,12.7016079 L35.601677,27.1364397 L36.766139,27.1364397 L36.766139,16.0706464 L40.0736208,16.0706464 L40.0736208,25.2190841 L41.2370617,25.2190841 L41.2370617,22.3683592 L47.3433386,22.3683592 L47.3433386,25.2190841 L52.9787234,25.2190841 C52.3076254,19.2584776 49.8489755,14.3385478 45.6037955,10.4592943 C41.3596367,6.58915181 36.1553072,4.58574814 29.99285,4.44705882 M10.0539862,38.8248165 L49.9449927,38.8248165 C47.8969691,42.2707924 45.1380106,45.0142101 41.6691383,47.0530451 C38.1910733,49.0999791 34.2993177,50.1457173 29.99285,50.1882353 C25.6874037,50.1457173 21.7997339,49.0999791 18.3308617,47.0530451 C14.8609683,45.0142101 12.1030311,42.2707924 10.0539862,38.8248165" id="Shape" fill="#050505"></path>
                    <path d="M6.06951867,31.2898827 L5.11140826,31.2898827 L5.11140826,31.2898827 C4.91235886,30.9643275 4.64869273,30.708738 4.32040985,30.5231144 L4.32040985,30.5231144 L4.32040985,30.5231144 C3.99212715,30.3374907 3.62596558,30.2446789 3.22192513,30.2446789 L3.22192513,30.2446789 L3.22192513,30.2446789 C2.87730241,30.2446789 2.56238855,30.3146448 2.27718356,30.4545766 L2.27718356,30.4545766 L2.27718356,30.4545766 C1.99197857,30.5945082 1.74762328,30.7822736 1.54411769,31.0178728 L1.54411769,31.0178728 L1.54411769,31.0178728 C1.34061192,31.253472 1.18241222,31.5261959 1.06951859,31.8360445 L1.06951859,31.8360445 L1.06951859,31.8360445 C0.956624956,32.1458932 0.90017814,32.4721625 0.90017814,32.8148524 L0.90017814,32.8148524 L0.90017814,32.8148524 C0.90017814,33.2203686 0.962566781,33.5794789 1.08734406,33.8921832 L1.08734406,33.8921832 L1.08734406,33.8921832 C1.21212117,34.2048876 1.37477715,34.4647607 1.57531201,34.6718025 L1.57531201,34.6718025 L1.57531201,34.6718025 C1.77584669,34.8788443 2.01426015,35.051617 2.29055241,35.1901208 L2.29055241,35.1901208 L2.29055241,35.1901208 C2.56684484,35.3286246 2.87730241,35.3978766 3.22192513,35.3978766 L3.22192513,35.3978766 L3.22192513,35.3978766 C3.69132496,35.3978766 4.09982169,35.2886441 4.44741532,35.0701792 L4.44741532,35.0701792 L4.44741532,35.0701792 C4.79500895,34.8517145 5.0920975,34.4926043 5.33868098,33.9928485 L5.33868098,33.9928485 L6.12299458,34.3483891 L6.12299458,34.3483891 C6.01010095,34.6568099 5.81847883,34.9545216 5.54812823,35.2415242 L5.54812823,35.2415242 L5.54812823,35.2415242 C5.27777762,35.528527 4.94429574,35.7598426 4.54768257,35.9354711 L4.54768257,35.9354711 L4.54768257,35.9354711 C4.15106941,36.1110995 3.71212108,36.1989137 3.23083761,36.1989137 L3.23083761,36.1989137 L3.23083761,36.1989137 C2.77035052,36.1989137 2.3469994,36.1153831 1.96078425,35.9483218 L1.96078425,35.9483218 L1.96078425,35.9483218 C1.5745691,35.7812607 1.23068911,35.5435196 0.929144276,35.2350987 L0.929144276,35.2350987 L0.929144276,35.2350987 C0.62759944,34.9266779 0.397355808,34.5611422 0.23841338,34.1384914 L0.23841338,34.1384914 L0.23841338,34.1384914 C0.0794711268,33.7158409 0,33.2746278 0,32.8148524 L0,32.8148524 L0,32.8148524 C0,32.3522211 0.0794711268,31.9152917 0.23841338,31.5040641 L0.23841338,31.5040641 L0.23841338,31.5040641 C0.397355808,31.0928362 0.620172245,30.7351538 0.906862693,30.4310167 L0.906862693,30.4310167 L0.906862693,30.4310167 C1.19355314,30.1268794 1.53520495,29.8869965 1.93181811,29.7113681 L1.93181811,29.7113681 L1.93181811,29.7113681 C2.32843128,29.5357397 2.75846695,29.4479254 3.22192513,29.4479254 L3.22192513,29.4479254 L3.22192513,29.4479254 C3.63487814,29.4479254 3.99138434,29.5043264 4.29144372,29.6171283 L4.29144372,29.6171283 L4.29144372,29.6171283 C4.59150327,29.7299304 4.84625667,29.8641506 5.05570391,30.019789 L5.05570391,30.019789 L5.05570391,30.019789 C5.26515133,30.1754271 5.4456327,30.3446302 5.59714802,30.5273981 L5.59714802,30.5273981 L6.06951867,30.5273981 L6.06951867,31.2898827 Z M9.96434922,36.1989137 L9.96434922,36.1989137 L9.96434922,36.1989137 C9.49792031,36.1989137 9.07159828,36.1153831 8.68538313,35.9483218 L8.68538313,35.9483218 L8.68538313,35.9483218 C8.29916816,35.7812607 7.95454544,35.5435196 7.65151497,35.2350987 L7.65151497,35.2350987 L7.65151497,35.2350987 C7.34848468,34.9266779 7.11824113,34.5611422 6.96078434,34.1384914 L6.96078434,34.1384914 L6.96078434,34.1384914 C6.80332737,33.7158409 6.72459888,33.2774835 6.72459888,32.8234195 L6.72459888,32.8234195 L6.72459888,32.8234195 C6.72459888,32.3550768 6.80407009,31.9152917 6.96301252,31.5040641 L6.96301252,31.5040641 L6.96301252,31.5040641 C7.12195478,31.0928362 7.34477113,30.7351538 7.63146157,30.4310167 L7.63146157,30.4310167 L7.63146157,30.4310167 C7.91815202,30.1268794 8.25980383,29.8869965 8.656417,29.7113681 L8.656417,29.7113681 L8.656417,29.7113681 C9.05303016,29.5357397 9.48900757,29.4479254 9.96434922,29.4479254 L9.96434922,29.4479254 L9.96434922,29.4479254 C10.4426618,29.4479254 10.8808674,29.5357397 11.278966,29.7113681 L11.278966,29.7113681 L11.278966,29.7113681 C11.6770646,29.8869965 12.0187164,30.1268794 12.3039214,30.4310167 L12.3039214,30.4310167 L12.3039214,30.4310167 C12.5891264,30.7351538 12.8104574,31.0928362 12.9679144,31.5040641 L12.9679144,31.5040641 L12.9679144,31.5040641 C13.1253713,31.9152917 13.2040998,32.3550768 13.2040998,32.8234195 L13.2040998,32.8234195 L13.2040998,32.8234195 C13.2040998,33.2917622 13.1246286,33.7308335 12.9656862,34.1406333 L12.9656862,34.1406333 L12.9656862,34.1406333 C12.8067439,34.5504332 12.5839276,34.9081156 12.2972371,35.2136806 L12.2972371,35.2136806 L12.2972371,35.2136806 C12.0105467,35.5192458 11.6688949,35.7598426 11.2722817,35.9354711 L11.2722817,35.9354711 L11.2722817,35.9354711 C10.8756684,36.1110995 10.4396909,36.1989137 9.96434922,36.1989137 Z M9.96434922,35.40216 L9.96434922,35.40216 L9.96434922,35.40216 C10.3178847,35.40216 10.6379976,35.3321942 10.9246881,35.1922626 L10.9246881,35.1922626 L10.9246881,35.1922626 C11.2113785,35.052331 11.4557338,34.8645656 11.657754,34.6289664 L11.657754,34.6289664 L11.657754,34.6289664 C11.8597741,34.393367 12.0157456,34.1199291 12.1256685,33.8086525 L12.1256685,33.8086525 L12.1256685,33.8086525 C12.2355912,33.4973761 12.2905526,33.1689651 12.2905526,32.8234195 L12.2905526,32.8234195 L12.2905526,32.8234195 C12.2905526,32.4693068 12.2303921,32.127331 12.1100712,31.7974921 L12.1100712,31.7974921 L12.1100712,31.7974921 C11.9897503,31.4676532 11.8218953,31.1885038 11.6065062,30.9600438 L11.6065062,30.9600438 L11.6065062,30.9600438 C11.391117,30.7315841 11.1408199,30.5552417 10.8556149,30.4310167 L10.8556149,30.4310167 L10.8556149,30.4310167 C10.5704099,30.3067915 10.2733213,30.2446789 9.96434922,30.2446789 L9.96434922,30.2446789 L9.96434922,30.2446789 C9.61081394,30.2446789 9.28995835,30.3146448 9.00178244,30.4545766 L9.00178244,30.4545766 L9.00178244,30.4545766 C8.71360654,30.5945082 8.46850852,30.7822736 8.26648838,31.0178728 L8.26648838,31.0178728 L8.26648838,31.0178728 C8.06446824,31.253472 7.90849673,31.5276238 7.79857384,31.8403282 L7.79857384,31.8403282 L7.79857384,31.8403282 C7.68865112,32.1530326 7.63368976,32.4807297 7.63368976,32.8234195 L7.63368976,32.8234195 L7.63368976,32.8234195 C7.63368976,33.2232243 7.69459294,33.5794789 7.81639931,33.8921832 L7.81639931,33.8921832 L7.81639931,33.8921832 C7.93820551,34.2048876 8.09937603,34.4647607 8.29991089,34.6718025 L8.29991089,34.6718025 L8.29991089,34.6718025 C8.50044557,34.8788443 8.73960185,35.052331 9.01737973,35.1922626 L9.01737973,35.1922626 L9.01737973,35.1922626 C9.29515744,35.3321942 9.61081394,35.40216 9.96434922,35.40216 Z M18.3377897,30.3175007 L18.3377897,29.576434 L20.530303,29.576434 L20.530303,30.3175007 L19.9554367,30.3175007 L19.9554367,36.0704051 L18.8146167,36.0704051 L15.6729054,30.685892 L15.6729054,35.3336222 L16.3680927,35.3336222 L16.3680927,36.0704051 L14.1755793,36.0704051 L14.1755793,35.3336222 L14.7994652,35.3336222 L14.7994652,30.3175007 L14.1577539,30.3175007 L14.1577539,29.5678667 L15.9759359,29.5678667 L19.0597146,34.9009764 L19.0953653,34.6953624 L19.0953653,30.3175007 L18.3377897,30.3175007 Z M21.3948307,30.3175007 L21.3948307,29.576434 L26.2344028,29.576434 L26.2344028,31.4141079 L25.3208556,31.4141079 L25.3208556,30.3175007 L22.909982,30.3175007 L22.909982,32.3950573 L24.9376113,32.3950573 L24.9376113,33.1318403 L22.909982,33.1318403 L22.909982,35.3336222 L25.3208556,35.3336222 L25.3208556,34.2370149 L26.2344028,34.2370149 L26.2344028,36.0704051 L21.3948307,36.0704051 L21.3948307,35.3336222 L22.0365418,35.3336222 L22.0365418,30.3175007 L21.3948307,30.3175007 Z M30.7219252,30.3175007 L30.7219252,29.576434 L32.9144386,29.576434 L32.9144386,30.3175007 L32.4153297,30.3175007 L30.5882352,32.7548816 L32.4955435,35.3336222 L32.9144386,35.3336222 L32.9144386,36.0704051 L30.7219252,36.0704051 L30.7219252,35.3336222 L31.5463459,35.3336222 L30.1024954,33.4017085 L28.6497325,35.3336222 L29.4385028,35.3336222 L29.4385028,36.0704051 L27.2459892,36.0704051 L27.2459892,35.3336222 L27.6871657,35.3336222 L29.6122993,32.750598 L27.7941176,30.3175007 L27.2459892,30.3175007 L27.2459892,29.576434 L29.4385028,29.576434 L29.4385028,30.3175007 L28.7878787,30.3175007 L30.1024954,32.0952038 L31.4304813,30.3175007 L30.7219252,30.3175007 Z M37.8074866,36.0704051 L37.8074866,35.3336222 L38.3689838,35.3336222 L37.8342245,33.8600562 L35.2361853,33.8600562 L34.7147951,35.3336222 L35.4099821,35.3336222 L35.4099821,36.0704051 L33.2174688,36.0704051 L33.2174688,35.3336222 L33.805704,35.3336222 L35.909091,29.576434 L37.2237077,29.576434 L39.3226381,35.3336222 L39.9999999,35.3336222 L39.9999999,36.0704051 L37.8074866,36.0704051 Z M36.5240641,30.2446789 L35.490196,33.148975 L37.5757575,33.148975 L36.5240641,30.2446789 Z M36.00713,27.9529412 L36.00713,27.9529412 L36.00713,27.9529412 C36.1556743,27.9529412 36.2841651,27.9765011 36.3926025,28.0236211 L36.3926025,28.0236211 L36.3926025,28.0236211 C36.5010398,28.0707409 36.6020499,28.1221443 36.6956327,28.1778314 L36.6956327,28.1778314 L36.6956327,28.1778314 C36.7892156,28.2335185 36.8820558,28.284208 36.9741532,28.3298999 L36.9741532,28.3298999 L36.9741532,28.3298999 C37.0662508,28.3755919 37.1702318,28.3984379 37.2860961,28.3984379 L37.2860961,28.3984379 L37.2860961,28.3984379 C37.369281,28.3984379 37.4502377,28.3713083 37.5289661,28.3170491 L37.5289661,28.3170491 L37.5289661,28.3170491 C37.6076946,28.2627899 37.6604278,28.1756896 37.6871657,28.055748 L37.6871657,28.055748 L38.2174688,28.2056749 L38.2174688,28.2056749 C38.1580511,28.4484136 38.0421866,28.636179 37.8698752,28.7689711 L37.8698752,28.7689711 L37.8698752,28.7689711 C37.6975639,28.9017635 37.4910873,28.9681596 37.2504457,28.9681596 L37.2504457,28.9681596 L37.2504457,28.9681596 C37.084076,28.9681596 36.9429589,28.9460275 36.8270946,28.9017634 L36.8270946,28.9017634 L36.8270946,28.9017634 C36.71123,28.8574994 36.6057636,28.8096657 36.5106953,28.7582622 L36.5106953,28.7582622 L36.5106953,28.7582622 C36.4156269,28.7068588 36.3265003,28.659025 36.2433155,28.6147608 L36.2433155,28.6147608 L36.2433155,28.6147608 C36.1601306,28.5704967 36.0695187,28.5483646 35.9714796,28.5483646 L35.9714796,28.5483646 L35.9714796,28.5483646 C35.9269163,28.5483646 35.8816102,28.5512204 35.8355614,28.5569319 L35.8355614,28.5569319 L35.8355614,28.5569319 C35.7895128,28.5626435 35.7442068,28.5762083 35.6996435,28.5976264 L35.6996435,28.5976264 L35.6996435,28.5976264 C35.6550801,28.6190444 35.6142304,28.6518855 35.5770944,28.6961496 L35.5770944,28.6961496 L35.5770944,28.6961496 C35.5399583,28.7404138 35.5109922,28.8025263 35.490196,28.8824872 L35.490196,28.8824872 L35.0044562,28.6554551 L35.0044562,28.6554551 C35.0430777,28.5212351 35.0980392,28.409147 35.1693405,28.319191 L35.1693405,28.319191 L35.1693405,28.319191 C35.2406417,28.2292349 35.3208556,28.1571273 35.4099821,28.1028681 L35.4099821,28.1028681 L35.4099821,28.1028681 C35.4991088,28.0486089 35.5949198,28.0100562 35.6974153,27.9872102 L35.6974153,27.9872102 L35.6974153,27.9872102 C35.7999109,27.9643642 35.9031491,27.9529412 36.00713,27.9529412 Z M43.6051694,36.1989137 L43.6051694,36.1989137 L43.6051694,36.1989137 C43.1387403,36.1989137 42.7124182,36.1153831 42.3262033,35.9483218 L42.3262033,35.9483218 L42.3262033,35.9483218 C41.9399881,35.7812607 41.5953654,35.5435196 41.2923351,35.2350987 L41.2923351,35.2350987 L41.2923351,35.2350987 C40.9893048,34.9266779 40.7590612,34.5611422 40.6016042,34.1384914 L40.6016042,34.1384914 L40.6016042,34.1384914 C40.4441472,33.7158409 40.3654188,33.2774835 40.3654188,32.8234195 L40.3654188,32.8234195 L40.3654188,32.8234195 C40.3654188,32.3550768 40.44489,31.9152917 40.6038324,31.5040641 L40.6038324,31.5040641 L40.6038324,31.5040641 C40.7627748,31.0928362 40.9855913,30.7351538 41.2722817,30.4310167 L41.2722817,30.4310167 L41.2722817,30.4310167 C41.5589722,30.1268794 41.900624,29.8869965 42.2972371,29.7113681 L42.2972371,29.7113681 L42.2972371,29.7113681 C42.6938503,29.5357397 43.1298277,29.4479254 43.6051694,29.4479254 L43.6051694,29.4479254 L43.6051694,29.4479254 C44.0834819,29.4479254 44.5216875,29.5357397 44.9197861,29.7113681 L44.9197861,29.7113681 L44.9197861,29.7113681 C45.3178848,29.8869965 45.6595366,30.1268794 45.9447416,30.4310167 L45.9447416,30.4310167 L45.9447416,30.4310167 C46.2299466,30.7351538 46.4512775,31.0928362 46.6087345,31.5040641 L46.6087345,31.5040641 L46.6087345,31.5040641 C46.7661913,31.9152917 46.8449197,32.3550768 46.8449197,32.8234195 L46.8449197,32.8234195 L46.8449197,32.8234195 C46.8449197,33.2917622 46.7654486,33.7308335 46.6065063,34.1406333 L46.6065063,34.1406333 L46.6065063,34.1406333 C46.4475639,34.5504332 46.2247475,34.9081156 45.938057,35.2136806 L45.938057,35.2136806 L45.938057,35.2136806 C45.6513666,35.5192458 45.3097148,35.7598426 44.9131016,35.9354711 L44.9131016,35.9354711 L44.9131016,35.9354711 C44.5164884,36.1110995 44.080511,36.1989137 43.6051694,36.1989137 Z M43.6051694,35.40216 L43.6051694,35.40216 L43.6051694,35.40216 C43.9587046,35.40216 44.2788175,35.3321942 44.565508,35.1922626 L44.565508,35.1922626 L44.565508,35.1922626 C44.8521984,35.052331 45.0965537,34.8645656 45.2985738,34.6289664 L45.2985738,34.6289664 L45.2985738,34.6289664 C45.5005941,34.393367 45.6565657,34.1199291 45.7664884,33.8086525 L45.7664884,33.8086525 L45.7664884,33.8086525 C45.8764111,33.4973761 45.9313725,33.1689651 45.9313725,32.8234195 L45.9313725,32.8234195 L45.9313725,32.8234195 C45.9313725,32.4693068 45.8712121,32.127331 45.7508914,31.7974921 L45.7508914,31.7974921 L45.7508914,31.7974921 C45.6305704,31.4676532 45.4627154,31.1885038 45.2473261,30.9600438 L45.2473261,30.9600438 L45.2473261,30.9600438 C45.031937,30.7315841 44.78164,30.5552417 44.496435,30.4310167 L44.496435,30.4310167 L44.496435,30.4310167 C44.21123,30.3067915 43.9141415,30.2446789 43.6051694,30.2446789 L43.6051694,30.2446789 L43.6051694,30.2446789 C43.2516339,30.2446789 42.9307783,30.3146448 42.6426026,30.4545766 L42.6426026,30.4545766 L42.6426026,30.4545766 C42.3544267,30.5945082 42.1093286,30.7822736 41.9073083,31.0178728 L41.9073083,31.0178728 L41.9073083,31.0178728 C41.7052881,31.253472 41.5493167,31.5276238 41.439394,31.8403282 L41.439394,31.8403282 L41.439394,31.8403282 C41.3294713,32.1530326 41.2745099,32.4807297 41.2745099,32.8234195 L41.2745099,32.8234195 L41.2745099,32.8234195 C41.2745099,33.2232243 41.335413,33.5794789 41.4572192,33.8921832 L41.4572192,33.8921832 L41.4572192,33.8921832 C41.5790256,34.2048876 41.7401961,34.4647607 41.9407308,34.6718025 L41.9407308,34.6718025 L41.9407308,34.6718025 C42.1412656,34.8788443 42.3804219,35.052331 42.6581996,35.1922626 L42.6581996,35.1922626 L42.6581996,35.1922626 C42.9359773,35.3321942 43.2516339,35.40216 43.6051694,35.40216 Z M53.2575756,31.3412862 L53.2575756,31.3412862 C53.2575756,31.0899804 53.2100415,30.901501 53.1149731,30.7758482 L53.1149731,30.7758482 L53.1149731,30.7758482 C53.0199048,30.6501953 52.9151811,30.5538138 52.800802,30.4867038 L52.800802,30.4867038 L52.800802,30.4867038 C52.6864229,30.4195936 52.5609031,30.3681901 52.4242425,30.3324932 L52.4242425,30.3324932 L52.4242425,30.3324932 C52.2875818,30.2967964 52.150921,30.278948 52.0142602,30.278948 L52.0142602,30.278948 L52.0142602,30.278948 C51.788473,30.278948 51.5909091,30.3039358 51.4215687,30.3539115 L51.4215687,30.3539115 L51.4215687,30.3539115 C51.2522282,30.4038871 51.1118539,30.471711 51.0004457,30.5573834 L51.0004457,30.5573834 L51.0004457,30.5573834 C50.8890374,30.6430558 50.8051098,30.743007 50.748663,30.857237 L50.748663,30.857237 L50.748663,30.857237 C50.6922162,30.9714669 50.6639928,31.0914084 50.6639928,31.2170613 L50.6639928,31.2170613 L50.6639928,31.2170613 C50.6639928,31.4055407 50.6989007,31.5576092 50.7687167,31.6732669 L50.7687167,31.6732669 L50.7687167,31.6732669 C50.8385324,31.7889248 50.9269162,31.8817366 51.033868,31.9517024 L51.033868,31.9517024 L51.033868,31.9517024 C51.14082,32.0216682 51.2589127,32.0766414 51.3881462,32.1166219 L51.3881462,32.1166219 L51.3881462,32.1166219 C51.5173796,32.1566024 51.6414141,32.1965829 51.7602496,32.2365634 L51.7602496,32.2365634 L52.6604277,32.5192825 L52.6604277,32.5192825 C52.9307783,32.6020991 53.1691919,32.6963388 53.3756684,32.8020014 L53.3756684,32.8020014 L53.3756684,32.8020014 C53.5821449,32.907664 53.755199,33.0326031 53.8948306,33.1768185 L53.8948306,33.1768185 L53.8948306,33.1768185 C54.0344623,33.3210338 54.1406715,33.487381 54.2134581,33.6758603 L54.2134581,33.6758603 L54.2134581,33.6758603 C54.2862448,33.8643397 54.3226381,34.0828044 54.3226381,34.3312544 L54.3226381,34.3312544 L54.3226381,34.3312544 C54.3226381,34.5996949 54.2654486,34.848145 54.1510695,35.0766047 L54.1510695,35.0766047 L54.1510695,35.0766047 C54.0366904,35.3050647 53.8770053,35.5035392 53.6720143,35.6720284 L53.6720143,35.6720284 L53.6720143,35.6720284 C53.4670232,35.8405174 53.2226679,35.9725957 52.9389484,36.0682633 L52.9389484,36.0682633 L52.9389484,36.0682633 C52.6552289,36.1639309 52.3440286,36.2117647 52.0053475,36.2117647 L52.0053475,36.2117647 L52.0053475,36.2117647 C51.657754,36.2117647 51.3606656,36.173926 51.1140821,36.0982487 L51.1140821,36.0982487 L51.1140821,36.0982487 C50.8674986,36.0225713 50.6602793,35.9211923 50.4924241,35.7941115 L50.4924241,35.7941115 L50.4924241,35.7941115 C50.3245691,35.6670307 50.1901367,35.5221015 50.0891267,35.3593239 L50.0891267,35.3593239 L50.0891267,35.3593239 C49.9881165,35.1965463 49.909388,35.029485 49.8529412,34.85814 L49.8529412,34.85814 L49.5142603,34.85814 L49.5142603,34.121357 L50.6372548,34.121357 L50.6372548,34.121357 C50.6372548,34.4383451 50.6721628,34.6625214 50.7419787,34.7938859 L50.7419787,34.7938859 L50.7419787,34.7938859 C50.8117944,34.9252501 50.9090909,35.0344825 51.033868,35.1215829 L51.033868,35.1215829 L51.033868,35.1215829 C51.1586453,35.2086832 51.3071896,35.2743653 51.4795009,35.3186293 L51.4795009,35.3186293 L51.4795009,35.3186293 C51.6518123,35.3628935 51.841949,35.3850256 52.0499109,35.3850256 L52.0499109,35.3850256 L52.0499109,35.3850256 C52.2519311,35.3850256 52.4338978,35.3621796 52.5958111,35.3164875 L52.5958111,35.3164875 L52.5958111,35.3164875 C52.7577243,35.2707956 52.8958704,35.2043995 53.0102495,35.1172993 L53.0102495,35.1172993 L53.0102495,35.1172993 C53.1246286,35.030199 53.2122698,34.9245363 53.2731729,34.8003111 L53.2731729,34.8003111 L53.2731729,34.8003111 C53.3340761,34.6760861 53.3645277,34.5354405 53.3645277,34.3783745 L53.3645277,34.3783745 L53.3645277,34.3783745 C53.3645277,34.2041737 53.3266489,34.0563888 53.2508914,33.9350195 L53.2508914,33.9350195 L53.2508914,33.9350195 C53.1751338,33.8136503 53.0778373,33.7101294 52.9590018,33.6244568 L52.9590018,33.6244568 L52.9590018,33.6244568 C52.8401664,33.5387845 52.7101901,33.4688187 52.5690732,33.4145594 L52.5690732,33.4145594 L52.5690732,33.4145594 C52.4279561,33.3603002 52.292038,33.3131804 52.1613191,33.2731999 L52.1613191,33.2731999 L51.1853832,33.0076154 L51.1853832,33.0076154 C50.9714794,32.9447889 50.7761438,32.8648278 50.5993762,32.7677324 L50.5993762,32.7677324 L50.5993762,32.7677324 C50.4226085,32.670637 50.2710933,32.5521235 50.1448308,32.4121917 L50.1448308,32.4121917 L50.1448308,32.4121917 C50.018568,32.2722601 49.9212715,32.1087686 49.8529412,31.921717 L49.8529412,31.921717 L49.8529412,31.921717 C49.7846108,31.7346656 49.7504455,31.5183428 49.7504455,31.2727484 L49.7504455,31.2727484 L49.7504455,31.2727484 C49.7504455,31.0242983 49.8009506,30.7915548 49.9019608,30.5745178 L49.9019608,30.5745178 L49.9019608,30.5745178 C50.0029709,30.357481 50.1515151,30.1675738 50.3475935,30.0047961 L50.3475935,30.0047961 L50.3475935,30.0047961 C50.5436719,29.8420185 50.783571,29.7142238 51.0672905,29.621412 L51.0672905,29.621412 L51.0672905,29.621412 C51.35101,29.5286001 51.6755793,29.4821942 52.0409982,29.4821942 L52.0409982,29.4821942 L52.0409982,29.4821942 C52.2816398,29.4821942 52.5037136,29.5093238 52.7072193,29.563583 L52.7072193,29.563583 L52.7072193,29.563583 C52.9107249,29.6178422 53.0949198,29.6942335 53.2598038,29.7927569 L53.2598038,29.7927569 L53.2598038,29.7927569 C53.4246881,29.8912803 53.5702615,30.0097938 53.6965241,30.1482975 L53.6965241,30.1482975 L53.6965241,30.1482975 C53.8227866,30.2868012 53.9289958,30.4388698 54.0151515,30.6045032 L54.0151515,30.6045032 L54.3493761,30.6045032 L54.3493761,31.3412862 L53.2575756,31.3412862 Z M55.1871658,30.3175007 L55.1871658,29.576434 L57.9188948,29.576434 L57.9188948,29.576434 C58.2219251,29.576434 58.5004457,29.6142727 58.7544564,29.68995 L58.7544564,29.68995 L58.7544564,29.68995 C59.008467,29.7656274 59.2283125,29.8770016 59.413993,30.0240726 L59.413993,30.0240726 L59.413993,30.0240726 C59.5996733,30.1711435 59.7437611,30.3546252 59.8462566,30.5745178 L59.8462566,30.5745178 L59.8462566,30.5745178 C59.9487522,30.7944104 60,31.0471442 60,31.3327191 L60,31.3327191 L60,31.3327191 C60,31.5697462 59.9494949,31.7932084 59.8484848,32.0031058 L59.8484848,32.0031058 L59.8484848,32.0031058 C59.7474748,32.2130034 59.6048723,32.3964852 59.4206773,32.5535513 L59.4206773,32.5535513 L59.4206773,32.5535513 C59.2364824,32.7106175 59.0158943,32.8348426 58.7589128,32.9262266 L58.7589128,32.9262266 L58.7589128,32.9262266 C58.5019311,33.0176105 58.2159834,33.0633025 57.9010696,33.0633025 L57.9010696,33.0633025 L56.7023174,33.0633025 L56.7023174,35.3336222 L57.3796792,35.3336222 L57.3796792,36.0704051 L55.1871658,36.0704051 L55.1871658,35.3336222 L55.8288769,35.3336222 L55.8288769,30.3175007 L55.1871658,30.3175007 Z M57.8074867,30.3175007 L56.7023174,30.3175007 L56.7023174,32.3607883 L57.9188948,32.3607883 L57.9188948,32.3607883 C58.0882353,32.3607883 58.2434641,32.3386563 58.3845812,32.2943923 L58.3845812,32.2943923 L58.3845812,32.2943923 C58.5256981,32.2501281 58.6475044,32.1851599 58.75,32.0994875 L58.75,32.0994875 L58.75,32.0994875 C58.8524955,32.0138151 58.9327093,31.9067245 58.9906416,31.7782159 L58.9906416,31.7782159 L58.9906416,31.7782159 C59.0485739,31.6497072 59.07754,31.5012083 59.07754,31.3327191 L59.07754,31.3327191 L59.07754,31.3327191 C59.07754,31.0128752 58.9765299,30.7637112 58.7745098,30.585227 L58.7745098,30.585227 L58.7745098,30.585227 C58.5724897,30.4067428 58.2501486,30.3175007 57.8074867,30.3175007 L57.8074867,30.3175007 Z" id="Shape" fill="#B73F2F"></path>
                </g>
            </g>
        </g>
    </g>
</svg>