<?xml version="1.0" encoding="UTF-8"?>
<svg width="60px" height="55px" viewBox="0 0 60 55" version="1.1" xmlns="http://www.w3.org/2000/svg" xmlns:xlink="http://www.w3.org/1999/xlink">
    <!-- Generator: Sketch 53.2 (72643) - https://sketchapp.com -->
    <title>logo-header/white</title>
    <desc>Created with Sketch.</desc>
    <g id="Page-1" stroke="none" stroke-width="1" fill="none" fill-rule="evenodd">
        <g id="01---Home" transform="translate(-42.000000, -23.000000)" fill="#FFFFFF">
            <g id="logo-header/white" transform="translate(42.000000, 23.000000)">
                <g id="SVGlogo">
                    <path d="M30,53.9757524 C24.7005145,53.9064929 19.9628482,52.5284327 15.7870007,49.8425902 C11.6121747,47.1567477 8.40878487,43.5847909 6.17683124,39.1267199 L5.53635751,39.1267199 C7.78567639,43.7589582 11.0585275,47.4704522 15.3559322,50.2601841 C19.6533369,53.0499159 24.5350332,54.4799208 30,54.5491803 C35.4649668,54.4799208 40.3425771,53.0499159 44.6307885,50.2601841 C48.928193,47.4704522 52.2061517,43.7589582 54.4636425,39.1267199 L53.8098895,39.1267199 C51.5871292,43.5847909 48.3878253,47.1567477 44.2129993,49.8425902 C40.0289799,52.5284327 35.2913136,53.9064929 30,53.9757524 M3.58837772,25.437784 L3,25.437784 C3.40961707,20.7525827 4.84787372,16.5420129 7.31476998,12.8040372 C9.78983814,9.06707973 12.993228,6.1031808 16.9249395,3.91335834 C20.8474576,1.72251769 25.2061517,0.602143212 30,0.549180328 C34.7856764,0.602143212 39.143349,1.72251769 43.0750605,3.91335834 C47.006772,6.1031808 50.2050545,9.06707973 52.6719507,12.8040372 C55.1388467,16.5420129 56.5811896,20.7525827 57,25.437784 L56.4116223,25.437784 C56.0020052,20.8574906 54.5903071,16.7457173 52.1755069,13.104501 C49.7525347,9.4541181 46.6226921,6.55540458 42.7870007,4.40836017 C38.9431372,2.2704824 34.6804632,1.17557117 30,1.12362648 C25.3195368,1.17557117 21.0568628,2.2704824 17.2129993,4.40836017 C13.3681145,6.55540458 10.2392933,9.4541181 7.8244931,13.104501 C5.40969286,16.7548839 3.99799479,20.8656387 3.58837772,25.437784" id="Shape"></path>
                    <path d="M26.7998757,17.945825 L25.6353575,17.945825 L25.6353575,19.9911067 L26.7998757,19.9911067 L26.7998757,17.945825 M26.7998757,23.5614414 L26.7998757,21.5293944 L25.6353575,21.5293944 L25.6353575,23.5614414 L26.7998757,23.5614414 M45.9065613,26.1157526 L45.9065613,24.0704709 L44.7420431,24.0704709 L44.7420431,26.1157526 L45.9065613,26.1157526 M34.3380602,13.9967724 L33.173542,13.9967724 L33.173542,16.0430718 L34.3380602,16.0430718 L34.3380602,13.9967724 M29.9928434,4.54918033 C23.8338818,4.68865441 18.6298454,6.70848444 14.3807344,10.6086704 C10.1316235,14.5007116 7.67171961,19.4444085 7,25.4387428 L13.9482577,25.4387428 L13.9482577,18.6879905 L19.4845751,18.6879905 L19.4845751,25.4387428 L20.6490933,25.4387428 L20.6490933,15.7956833 L23.0312945,15.7956833 L23.0312945,21.5813155 L24.1958127,21.5813155 L24.1958127,9.69648911 L28.2527117,9.69648911 L28.2527117,23.679536 L29.4172299,23.679536 L29.4172299,12.8504373 L35.6068637,12.8504373 L35.6068637,27.3669476 L36.772404,27.3669476 L36.772404,16.2385393 L40.0829482,16.2385393 L40.0829482,25.4387428 L41.2474664,25.4387428 L41.2474664,22.5718873 L47.3593973,22.5718873 L47.3593973,25.4387428 L53,25.4387428 C52.3282806,19.4444085 49.8673542,14.4966397 45.6182435,10.5954357 C41.3701549,6.70339421 36.1610065,4.68865441 29.9928434,4.54918033 M10.0355176,39.1214624 L49.9634603,39.1214624 C47.9135404,42.5869371 45.1520273,45.3458782 41.6799431,47.3962499 C38.1986576,49.4547663 34.3032986,50.5064217 29.9928434,50.5491803 C25.6834105,50.5064217 21.7921411,49.4547663 18.3200569,47.3962499 C14.8469506,45.3458782 12.0864599,42.5869371 10.0355176,39.1214624" id="Shape"></path>
                    <path d="M6.06951867,31.7815454 L5.11140826,31.7815454 L5.11140826,31.7815454 C4.91235886,31.4661927 4.64869273,31.2186132 4.32040985,31.0388068 L4.32040985,31.0388068 L4.32040985,31.0388068 C3.99212715,30.8590004 3.62596558,30.7690972 3.22192513,30.7690972 L3.22192513,30.7690972 L3.22192513,30.7690972 C2.87730241,30.7690972 2.56238855,30.8368704 2.27718356,30.9724169 L2.27718356,30.9724169 L2.27718356,30.9724169 C1.99197857,31.1079632 1.74762328,31.2898442 1.54411769,31.5180599 L1.54411769,31.5180599 L1.54411769,31.5180599 C1.34061192,31.7462757 1.18241222,32.0104527 1.06951859,32.310591 L1.06951859,32.310591 L1.06951859,32.310591 C0.956624956,32.6107293 0.90017814,32.9267736 0.90017814,33.2587239 L0.90017814,33.2587239 L0.90017814,33.2587239 C0.90017814,33.6515317 0.962566781,33.9993878 1.08734406,34.3022922 L1.08734406,34.3022922 L1.08734406,34.3022922 C1.21212117,34.6051968 1.37477715,34.8569258 1.57531201,35.0574791 L1.57531201,35.0574791 L1.57531201,35.0574791 C1.77584669,35.2580324 2.01426015,35.4253906 2.29055241,35.5595537 L2.29055241,35.5595537 L2.29055241,35.5595537 C2.56684484,35.693717 2.87730241,35.7607987 3.22192513,35.7607987 L3.22192513,35.7607987 L3.22192513,35.7607987 C3.69132496,35.7607987 4.09982169,35.6549895 4.44741532,35.4433711 L4.44741532,35.4433711 L4.44741532,35.4433711 C4.79500895,35.2317528 5.0920975,34.8838967 5.33868098,34.3998028 L5.33868098,34.3998028 L6.12299458,34.7442011 L6.12299458,34.7442011 C6.01010095,35.0429563 5.81847883,35.331338 5.54812823,35.6093462 L5.54812823,35.6093462 L5.54812823,35.6093462 C5.27777762,35.8873546 4.94429574,36.111421 4.54768257,36.2815455 L4.54768257,36.2815455 L4.54768257,36.2815455 C4.15106941,36.4516699 3.71212108,36.5367321 3.23083761,36.5367321 L3.23083761,36.5367321 L3.23083761,36.5367321 C2.77035052,36.5367321 2.3469994,36.4558192 1.96078425,36.2939935 L1.96078425,36.2939935 L1.96078425,36.2939935 C1.5745691,36.1321679 1.23068911,35.9018774 0.929144276,35.6031221 L0.929144276,35.6031221 L0.929144276,35.6031221 C0.62759944,35.3043669 0.397355808,34.9502867 0.23841338,34.5408814 L0.23841338,34.5408814 L0.23841338,34.5408814 C0.0794711268,34.1314763 0,33.7040905 0,33.2587239 L0,33.2587239 L0,33.2587239 C0,32.8105911 0.0794711268,32.3873546 0.23841338,31.9890145 L0.23841338,31.9890145 L0.23841338,31.9890145 C0.397355808,31.5906741 0.620172245,31.2442011 0.906862693,30.9495953 L0.906862693,30.9495953 L0.906862693,30.9495953 C1.19355314,30.6549894 1.53520495,30.4226243 1.93181811,30.2524999 L1.93181811,30.2524999 L1.93181811,30.2524999 C2.32843128,30.0823754 2.75846695,29.9973132 3.22192513,29.9973132 L3.22192513,29.9973132 L3.22192513,29.9973132 C3.63487814,29.9973132 3.99138434,30.0519466 4.29144372,30.1612134 L4.29144372,30.1612134 L4.29144372,30.1612134 C4.59150327,30.2704804 4.84625667,30.4004943 5.05570391,30.5512551 L5.05570391,30.5512551 L5.05570391,30.5512551 C5.26515133,30.7020157 5.4456327,30.8659161 5.59714802,31.0429562 L5.59714802,31.0429562 L6.06951867,31.0429562 L6.06951867,31.7815454 Z M9.96434922,36.5367321 L9.96434922,36.5367321 L9.96434922,36.5367321 C9.49792031,36.5367321 9.07159828,36.4558192 8.68538313,36.2939935 L8.68538313,36.2939935 L8.68538313,36.2939935 C8.29916816,36.1321679 7.95454544,35.9018774 7.65151497,35.6031221 L7.65151497,35.6031221 L7.65151497,35.6031221 C7.34848468,35.3043669 7.11824113,34.9502867 6.96078434,34.5408814 L6.96078434,34.5408814 L6.96078434,34.5408814 C6.80332737,34.1314763 6.72459888,33.7068567 6.72459888,33.2670225 L6.72459888,33.2670225 L6.72459888,33.2670225 C6.72459888,32.8133573 6.80407009,32.3873546 6.96301252,31.9890145 L6.96301252,31.9890145 L6.96301252,31.9890145 C7.12195478,31.5906741 7.34477113,31.2442011 7.63146157,30.9495953 L7.63146157,30.9495953 L7.63146157,30.9495953 C7.91815202,30.6549894 8.25980383,30.4226243 8.656417,30.2524999 L8.656417,30.2524999 L8.656417,30.2524999 C9.05303016,30.0823754 9.48900757,29.9973132 9.96434922,29.9973132 L9.96434922,29.9973132 L9.96434922,29.9973132 C10.4426618,29.9973132 10.8808674,30.0823754 11.278966,30.2524999 L11.278966,30.2524999 L11.278966,30.2524999 C11.6770646,30.4226243 12.0187164,30.6549894 12.3039214,30.9495953 L12.3039214,30.9495953 L12.3039214,30.9495953 C12.5891264,31.2442011 12.8104574,31.5906741 12.9679144,31.9890145 L12.9679144,31.9890145 L12.9679144,31.9890145 C13.1253713,32.3873546 13.2040998,32.8133573 13.2040998,33.2670225 L13.2040998,33.2670225 L13.2040998,33.2670225 C13.2040998,33.7206879 13.1246286,34.1459991 12.9656862,34.5429561 L12.9656862,34.5429561 L12.9656862,34.5429561 C12.8067439,34.9399133 12.5839276,35.2863864 12.2972371,35.5823753 L12.2972371,35.5823753 L12.2972371,35.5823753 C12.0105467,35.8783643 11.6688949,36.111421 11.2722817,36.2815455 L11.2722817,36.2815455 L11.2722817,36.2815455 C10.8756684,36.4516699 10.4396909,36.5367321 9.96434922,36.5367321 Z M9.96434922,35.7649478 L9.96434922,35.7649478 L9.96434922,35.7649478 C10.3178847,35.7649478 10.6379976,35.6971747 10.9246881,35.5616284 L10.9246881,35.5616284 L10.9246881,35.5616284 C11.2113785,35.4260821 11.4557338,35.2442011 11.657754,35.0159854 L11.657754,35.0159854 L11.657754,35.0159854 C11.8597741,34.7877695 12.0157456,34.5229008 12.1256685,34.2213794 L12.1256685,34.2213794 L12.1256685,34.2213794 C12.2355912,33.9198581 12.2905526,33.6017391 12.2905526,33.2670225 L12.2905526,33.2670225 L12.2905526,33.2670225 C12.2905526,32.9240074 12.2303921,32.5927488 12.1100712,32.2732467 L12.1100712,32.2732467 L12.1100712,32.2732467 C11.9897503,31.9537447 11.8218953,31.6833435 11.6065062,31.4620433 L11.6065062,31.4620433 L11.6065062,31.4620433 C11.391117,31.2407432 11.1408199,31.0699273 10.8556149,30.9495953 L10.8556149,30.9495953 L10.8556149,30.9495953 C10.5704099,30.8292633 10.2733213,30.7690972 9.96434922,30.7690972 L9.96434922,30.7690972 L9.96434922,30.7690972 C9.61081394,30.7690972 9.28995835,30.8368704 9.00178244,30.9724169 L9.00178244,30.9724169 L9.00178244,30.9724169 C8.71360654,31.1079632 8.46850852,31.2898442 8.26648838,31.5180599 L8.26648838,31.5180599 L8.26648838,31.5180599 C8.06446824,31.7462757 7.90849673,32.0118358 7.79857384,32.3147404 L7.79857384,32.3147404 L7.79857384,32.3147404 C7.68865112,32.617645 7.63368976,32.9350724 7.63368976,33.2670225 L7.63368976,33.2670225 L7.63368976,33.2670225 C7.63368976,33.6542979 7.69459294,33.9993878 7.81639931,34.3022922 L7.81639931,34.3022922 L7.81639931,34.3022922 C7.93820551,34.6051968 8.09937603,34.8569258 8.29991089,35.0574791 L8.29991089,35.0574791 L8.29991089,35.0574791 C8.50044557,35.2580324 8.73960185,35.4260821 9.01737973,35.5616284 L9.01737973,35.5616284 L9.01737973,35.5616284 C9.29515744,35.6971747 9.61081394,35.7649478 9.96434922,35.7649478 Z M18.3377897,30.8396368 L18.3377897,30.1217945 L20.530303,30.1217945 L20.530303,30.8396368 L19.9554367,30.8396368 L19.9554367,36.4122508 L18.8146167,36.4122508 L15.6729054,31.1964831 L15.6729054,35.6985579 L16.3680927,35.6985579 L16.3680927,36.4122508 L14.1755793,36.4122508 L14.1755793,35.6985579 L14.7994652,35.6985579 L14.7994652,30.8396368 L14.1577539,30.8396368 L14.1577539,30.1134956 L15.9759359,30.1134956 L19.0597146,35.2794708 L19.0953653,35.0803006 L19.0953653,30.8396368 L18.3377897,30.8396368 Z M21.3948307,30.8396368 L21.3948307,30.1217945 L26.2344028,30.1217945 L26.2344028,31.9018775 L25.3208556,31.9018775 L25.3208556,30.8396368 L22.909982,30.8396368 L22.909982,32.8520849 L24.9376113,32.8520849 L24.9376113,33.5657778 L22.909982,33.5657778 L22.909982,35.6985579 L25.3208556,35.6985579 L25.3208556,34.6363173 L26.2344028,34.6363173 L26.2344028,36.4122508 L21.3948307,36.4122508 L21.3948307,35.6985579 L22.0365418,35.6985579 L22.0365418,30.8396368 L21.3948307,30.8396368 Z M30.7219252,30.8396368 L30.7219252,30.1217945 L32.9144386,30.1217945 L32.9144386,30.8396368 L32.4153297,30.8396368 L30.5882352,33.2006326 L32.4955435,35.6985579 L32.9144386,35.6985579 L32.9144386,36.4122508 L30.7219252,36.4122508 L30.7219252,35.6985579 L31.5463459,35.6985579 L30.1024954,33.8271885 L28.6497325,35.6985579 L29.4385028,35.6985579 L29.4385028,36.4122508 L27.2459892,36.4122508 L27.2459892,35.6985579 L27.6871657,35.6985579 L29.6122993,33.1964832 L27.7941176,30.8396368 L27.2459892,30.8396368 L27.2459892,30.1217945 L29.4385028,30.1217945 L29.4385028,30.8396368 L28.7878787,30.8396368 L30.1024954,32.5616285 L31.4304813,30.8396368 L30.7219252,30.8396368 Z M37.8074866,36.4122508 L37.8074866,35.6985579 L38.3689838,35.6985579 L37.8342245,34.2711721 L35.2361853,34.2711721 L34.7147951,35.6985579 L35.4099821,35.6985579 L35.4099821,36.4122508 L33.2174688,36.4122508 L33.2174688,35.6985579 L33.805704,35.6985579 L35.909091,30.1217945 L37.2237077,30.1217945 L39.3226381,35.6985579 L39.9999999,35.6985579 L39.9999999,36.4122508 L37.8074866,36.4122508 Z M36.5240641,30.7690972 L35.490196,33.5823754 L37.5757575,33.5823754 L36.5240641,30.7690972 Z M36.00713,28.5491803 L36.00713,28.5491803 L36.00713,28.5491803 C36.1556743,28.5491803 36.2841651,28.572002 36.3926025,28.6176452 L36.3926025,28.6176452 L36.3926025,28.6176452 C36.5010398,28.6632883 36.6020499,28.7130808 36.6956327,28.7670227 L36.6956327,28.7670227 L36.6956327,28.7670227 C36.7892156,28.8209646 36.8820558,28.8700655 36.9741532,28.9143255 L36.9741532,28.9143255 L36.9741532,28.9143255 C37.0662508,28.9585856 37.1702318,28.9807157 37.2860961,28.9807157 L37.2860961,28.9807157 L37.2860961,28.9807157 C37.369281,28.9807157 37.4502377,28.9544363 37.5289661,28.9018775 L37.5289661,28.9018775 L37.5289661,28.9018775 C37.6076946,28.8493187 37.6604278,28.764948 37.6871657,28.6487653 L37.6871657,28.6487653 L38.2174688,28.7939937 L38.2174688,28.7939937 C38.1580511,29.0291251 38.0421866,29.2110061 37.8698752,29.3396367 L37.8698752,29.3396367 L37.8698752,29.3396367 C37.6975639,29.4682674 37.4910873,29.5325828 37.2504457,29.5325828 L37.2504457,29.5325828 L37.2504457,29.5325828 C37.084076,29.5325828 36.9429589,29.5111443 36.8270946,29.4682674 L36.8270946,29.4682674 L36.8270946,29.4682674 C36.71123,29.4253906 36.6057636,29.3790559 36.5106953,29.3292634 L36.5106953,29.3292634 L36.5106953,29.3292634 C36.4156269,29.2794709 36.3265003,29.2331362 36.2433155,29.1902592 L36.2433155,29.1902592 L36.2433155,29.1902592 C36.1601306,29.1473822 36.0695187,29.1259437 35.9714796,29.1259437 L35.9714796,29.1259437 L35.9714796,29.1259437 C35.9269163,29.1259437 35.8816102,29.12871 35.8355614,29.1342426 L35.8355614,29.1342426 L35.8355614,29.1342426 C35.7895128,29.1397751 35.7442068,29.1529149 35.6996435,29.1736618 L35.6996435,29.1736618 L35.6996435,29.1736618 C35.6550801,29.1944085 35.6142304,29.2262204 35.5770944,29.2690974 L35.5770944,29.2690974 L35.5770944,29.2690974 C35.5399583,29.3119743 35.5109922,29.3721403 35.490196,29.4495952 L35.490196,29.4495952 L35.0044562,29.2296782 L35.0044562,29.2296782 C35.0430777,29.0996644 35.0980392,28.9910891 35.1693405,28.9039522 L35.1693405,28.9039522 L35.1693405,28.9039522 C35.2406417,28.8168153 35.3208556,28.7469674 35.4099821,28.6944087 L35.4099821,28.6944087 L35.4099821,28.6944087 C35.4991088,28.6418499 35.5949198,28.6045055 35.6974153,28.5823754 L35.6974153,28.5823754 L35.6974153,28.5823754 C35.7999109,28.5602454 35.9031491,28.5491803 36.00713,28.5491803 Z M43.6051694,36.5367321 L43.6051694,36.5367321 L43.6051694,36.5367321 C43.1387403,36.5367321 42.7124182,36.4558192 42.3262033,36.2939935 L42.3262033,36.2939935 L42.3262033,36.2939935 C41.9399881,36.1321679 41.5953654,35.9018774 41.2923351,35.6031221 L41.2923351,35.6031221 L41.2923351,35.6031221 C40.9893048,35.3043669 40.7590612,34.9502867 40.6016042,34.5408814 L40.6016042,34.5408814 L40.6016042,34.5408814 C40.4441472,34.1314763 40.3654188,33.7068567 40.3654188,33.2670225 L40.3654188,33.2670225 L40.3654188,33.2670225 C40.3654188,32.8133573 40.44489,32.3873546 40.6038324,31.9890145 L40.6038324,31.9890145 L40.6038324,31.9890145 C40.7627748,31.5906741 40.9855913,31.2442011 41.2722817,30.9495953 L41.2722817,30.9495953 L41.2722817,30.9495953 C41.5589722,30.6549894 41.900624,30.4226243 42.2972371,30.2524999 L42.2972371,30.2524999 L42.2972371,30.2524999 C42.6938503,30.0823754 43.1298277,29.9973132 43.6051694,29.9973132 L43.6051694,29.9973132 L43.6051694,29.9973132 C44.0834819,29.9973132 44.5216875,30.0823754 44.9197861,30.2524999 L44.9197861,30.2524999 L44.9197861,30.2524999 C45.3178848,30.4226243 45.6595366,30.6549894 45.9447416,30.9495953 L45.9447416,30.9495953 L45.9447416,30.9495953 C46.2299466,31.2442011 46.4512775,31.5906741 46.6087345,31.9890145 L46.6087345,31.9890145 L46.6087345,31.9890145 C46.7661913,32.3873546 46.8449197,32.8133573 46.8449197,33.2670225 L46.8449197,33.2670225 L46.8449197,33.2670225 C46.8449197,33.7206879 46.7654486,34.1459991 46.6065063,34.5429561 L46.6065063,34.5429561 L46.6065063,34.5429561 C46.4475639,34.9399133 46.2247475,35.2863864 45.938057,35.5823753 L45.938057,35.5823753 L45.938057,35.5823753 C45.6513666,35.8783643 45.3097148,36.111421 44.9131016,36.2815455 L44.9131016,36.2815455 L44.9131016,36.2815455 C44.5164884,36.4516699 44.080511,36.5367321 43.6051694,36.5367321 Z M43.6051694,35.7649478 L43.6051694,35.7649478 L43.6051694,35.7649478 C43.9587046,35.7649478 44.2788175,35.6971747 44.565508,35.5616284 L44.565508,35.5616284 L44.565508,35.5616284 C44.8521984,35.4260821 45.0965537,35.2442011 45.2985738,35.0159854 L45.2985738,35.0159854 L45.2985738,35.0159854 C45.5005941,34.7877695 45.6565657,34.5229008 45.7664884,34.2213794 L45.7664884,34.2213794 L45.7664884,34.2213794 C45.8764111,33.9198581 45.9313725,33.6017391 45.9313725,33.2670225 L45.9313725,33.2670225 L45.9313725,33.2670225 C45.9313725,32.9240074 45.8712121,32.5927488 45.7508914,32.2732467 L45.7508914,32.2732467 L45.7508914,32.2732467 C45.6305704,31.9537447 45.4627154,31.6833435 45.2473261,31.4620433 L45.2473261,31.4620433 L45.2473261,31.4620433 C45.031937,31.2407432 44.78164,31.0699273 44.496435,30.9495953 L44.496435,30.9495953 L44.496435,30.9495953 C44.21123,30.8292633 43.9141415,30.7690972 43.6051694,30.7690972 L43.6051694,30.7690972 L43.6051694,30.7690972 C43.2516339,30.7690972 42.9307783,30.8368704 42.6426026,30.9724169 L42.6426026,30.9724169 L42.6426026,30.9724169 C42.3544267,31.1079632 42.1093286,31.2898442 41.9073083,31.5180599 L41.9073083,31.5180599 L41.9073083,31.5180599 C41.7052881,31.7462757 41.5493167,32.0118358 41.439394,32.3147404 L41.439394,32.3147404 L41.439394,32.3147404 C41.3294713,32.617645 41.2745099,32.9350724 41.2745099,33.2670225 L41.2745099,33.2670225 L41.2745099,33.2670225 C41.2745099,33.6542979 41.335413,33.9993878 41.4572192,34.3022922 L41.4572192,34.3022922 L41.4572192,34.3022922 C41.5790256,34.6051968 41.7401961,34.8569258 41.9407308,35.0574791 L41.9407308,35.0574791 L41.9407308,35.0574791 C42.1412656,35.2580324 42.3804219,35.4260821 42.6581996,35.5616284 L42.6581996,35.5616284 L42.6581996,35.5616284 C42.9359773,35.6971747 43.2516339,35.7649478 43.6051694,35.7649478 Z M53.2575756,31.8313379 L53.2575756,31.8313379 C53.2575756,31.5879078 53.2100415,31.4053352 53.1149731,31.2836201 L53.1149731,31.2836201 L53.1149731,31.2836201 C53.0199048,31.1619051 52.9151811,31.0685441 52.800802,31.0035373 L52.800802,31.0035373 L52.800802,31.0035373 C52.6864229,30.9385302 52.5609031,30.8887377 52.4242425,30.8541595 L52.4242425,30.8541595 L52.4242425,30.8541595 C52.2875818,30.8195814 52.150921,30.8022923 52.0142602,30.8022923 L52.0142602,30.8022923 L52.0142602,30.8022923 C51.788473,30.8022923 51.5909091,30.8264971 51.4215687,30.8749066 L51.4215687,30.8749066 L51.4215687,30.8749066 C51.2522282,30.923316 51.1118539,30.9890144 51.0004457,31.0720019 L51.0004457,31.0720019 L51.0004457,31.0720019 C50.8890374,31.1549894 50.8051098,31.2518082 50.748663,31.3624583 L50.748663,31.3624583 L50.748663,31.3624583 C50.6922162,31.4731084 50.6639928,31.589291 50.6639928,31.711006 L50.6639928,31.711006 L50.6639928,31.711006 C50.6639928,31.8935787 50.6989007,32.0408816 50.7687167,32.1529147 L50.7687167,32.1529147 L50.7687167,32.1529147 C50.8385324,32.2649479 50.9269162,32.3548511 51.033868,32.4226242 L51.033868,32.4226242 L51.033868,32.4226242 C51.14082,32.4903974 51.2589127,32.5436477 51.3881462,32.5823753 L51.3881462,32.5823753 L51.3881462,32.5823753 C51.5173796,32.6211028 51.6414141,32.6598304 51.7602496,32.698558 L51.7602496,32.698558 L52.6604277,32.9724169 L52.6604277,32.9724169 C52.9307783,33.0526382 53.1691919,33.1439244 53.3756684,33.2462757 L53.3756684,33.2462757 L53.3756684,33.2462757 C53.5821449,33.348627 53.755199,33.4696505 53.8948306,33.6093464 L53.8948306,33.6093464 L53.8948306,33.6093464 C54.0344623,33.7490421 54.1406715,33.9101762 54.2134581,34.0927487 L54.2134581,34.0927487 L54.2134581,34.0927487 C54.2862448,34.2753214 54.3226381,34.4869396 54.3226381,34.7276034 L54.3226381,34.7276034 L54.3226381,34.7276034 C54.3226381,34.9876312 54.2654486,35.2282951 54.1510695,35.4495952 L54.1510695,35.4495952 L54.1510695,35.4495952 C54.0366904,35.6708954 53.8770053,35.8631499 53.6720143,36.0263588 L53.6720143,36.0263588 L53.6720143,36.0263588 C53.4670232,36.1895676 53.2226679,36.3175067 52.9389484,36.4101761 L52.9389484,36.4101761 L52.9389484,36.4101761 C52.6552289,36.5028456 52.3440286,36.5491803 52.0053475,36.5491803 L52.0053475,36.5491803 L52.0053475,36.5491803 C51.657754,36.5491803 51.3606656,36.5125275 51.1140821,36.4392218 L51.1140821,36.4392218 L51.1140821,36.4392218 C50.8674986,36.3659161 50.6602793,36.2677142 50.4924241,36.144616 L50.4924241,36.144616 L50.4924241,36.144616 C50.3245691,36.0215178 50.1901367,35.8811305 50.0891267,35.7234542 L50.0891267,35.7234542 L50.0891267,35.7234542 C49.9881165,35.5657778 49.909388,35.4039521 49.8529412,35.2379769 L49.8529412,35.2379769 L49.5142603,35.2379769 L49.5142603,34.524284 L50.6372548,34.524284 L50.6372548,34.524284 C50.6372548,34.831338 50.6721628,35.0484888 50.7419787,35.1757364 L50.7419787,35.1757364 L50.7419787,35.1757364 C50.8117944,35.3029839 50.9090909,35.408793 51.033868,35.4931638 L51.033868,35.4931638 L51.033868,35.4931638 C51.1586453,35.5775344 51.3071896,35.6411582 51.4795009,35.684035 L51.4795009,35.684035 L51.4795009,35.684035 C51.6518123,35.7269119 51.841949,35.7483504 52.0499109,35.7483504 L52.0499109,35.7483504 L52.0499109,35.7483504 C52.2519311,35.7483504 52.4338978,35.7262204 52.5958111,35.6819603 L52.5958111,35.6819603 L52.5958111,35.6819603 C52.7577243,35.6377003 52.8958704,35.573385 53.0102495,35.4890144 L53.0102495,35.4890144 L53.0102495,35.4890144 C53.1246286,35.4046437 53.2122698,35.3022924 53.2731729,35.1819603 L53.2731729,35.1819603 L53.2731729,35.1819603 C53.3340761,35.0616284 53.3645277,34.9253905 53.3645277,34.7732468 L53.3645277,34.7732468 L53.3645277,34.7732468 C53.3645277,34.6045053 53.3266489,34.4613518 53.2508914,34.3437861 L53.2508914,34.3437861 L53.2508914,34.3437861 C53.1751338,34.2262205 53.0778373,34.1259439 52.9590018,34.0429562 L52.9590018,34.0429562 L52.9590018,34.0429562 C52.8401664,33.9599687 52.7101901,33.8921955 52.5690732,33.8396368 L52.5690732,33.8396368 L52.5690732,33.8396368 C52.4279561,33.787078 52.292038,33.7414348 52.1613191,33.7027073 L52.1613191,33.7027073 L51.1853832,33.4454459 L51.1853832,33.4454459 C50.9714794,33.3845883 50.7761438,33.3071332 50.5993762,33.2130806 L50.5993762,33.2130806 L50.5993762,33.2130806 C50.4226085,33.1190282 50.2710933,33.0042287 50.1448308,32.8686823 L50.1448308,32.8686823 L50.1448308,32.8686823 C50.018568,32.733136 49.9212715,32.5747681 49.8529412,32.3935786 L49.8529412,32.3935786 L49.8529412,32.3935786 C49.7846108,32.2123892 49.7504455,32.0028457 49.7504455,31.764948 L49.7504455,31.764948 L49.7504455,31.764948 C49.7504455,31.5242841 49.8009506,31.2988346 49.9019608,31.0885993 L49.9019608,31.0885993 L49.9019608,31.0885993 C50.0029709,30.8783642 50.1515151,30.6944085 50.3475935,30.5367321 L50.3475935,30.5367321 L50.3475935,30.5367321 C50.5436719,30.3790558 50.783571,30.255266 51.0672905,30.1653629 L51.0672905,30.1653629 L51.0672905,30.1653629 C51.35101,30.0754597 51.6755793,30.0305081 52.0409982,30.0305081 L52.0409982,30.0305081 L52.0409982,30.0305081 C52.2816398,30.0305081 52.5037136,30.0567875 52.7072193,30.1093462 L52.7072193,30.1093462 L52.7072193,30.1093462 C52.9107249,30.161905 53.0949198,30.2359023 53.2598038,30.331338 L53.2598038,30.331338 L53.2598038,30.331338 C53.4246881,30.4267738 53.5702615,30.5415732 53.6965241,30.6757363 L53.6965241,30.6757363 L53.6965241,30.6757363 C53.8227866,30.8098995 53.9289958,30.9572024 54.0151515,31.117645 L54.0151515,31.117645 L54.3493761,31.117645 L54.3493761,31.8313379 L53.2575756,31.8313379 Z M55.1871658,30.8396368 L55.1871658,30.1217945 L57.9188948,30.1217945 L57.9188948,30.1217945 C58.2219251,30.1217945 58.5004457,30.1584473 58.7544564,30.231753 L58.7544564,30.231753 L58.7544564,30.231753 C59.008467,30.3050587 59.2283125,30.4129425 59.413993,30.5554045 L59.413993,30.5554045 L59.413993,30.5554045 C59.5996733,30.6978663 59.7437611,30.8755979 59.8462566,31.0885993 L59.8462566,31.0885993 L59.8462566,31.0885993 C59.9487522,31.3016007 60,31.546414 60,31.8230393 L60,31.8230393 L60,31.8230393 C60,32.0526382 59.9494949,32.2690973 59.8484848,32.4724167 L59.8484848,32.4724167 L59.8484848,32.4724167 C59.7474748,32.6757363 59.6048723,32.853468 59.4206773,33.0056118 L59.4206773,33.0056118 L59.4206773,33.0056118 C59.2364824,33.1577557 59.0158943,33.2780877 58.7589128,33.3666078 L58.7589128,33.3666078 L58.7589128,33.3666078 C58.5019311,33.4551278 58.2159834,33.4993879 57.9010696,33.4993879 L57.9010696,33.4993879 L56.7023174,33.4993879 L56.7023174,35.6985579 L57.3796792,35.6985579 L57.3796792,36.4122508 L55.1871658,36.4122508 L55.1871658,35.6985579 L55.8288769,35.6985579 L55.8288769,30.8396368 L55.1871658,30.8396368 Z M57.8074867,30.8396368 L56.7023174,30.8396368 L56.7023174,32.8188898 L57.9188948,32.8188898 L57.9188948,32.8188898 C58.0882353,32.8188898 58.2434641,32.7974514 58.3845812,32.7545746 L58.3845812,32.7545746 L58.3845812,32.7545746 C58.5256981,32.7116976 58.6475044,32.6487654 58.75,32.5657779 L58.75,32.5657779 L58.75,32.5657779 C58.8524955,32.4827904 58.9327093,32.379056 58.9906416,32.2545746 L58.9906416,32.2545746 L58.9906416,32.2545746 C59.0485739,32.1300933 59.07754,31.9862482 59.07754,31.8230393 L59.07754,31.8230393 L59.07754,31.8230393 C59.07754,31.513219 58.9765299,31.2718635 58.7745098,31.0989728 L58.7745098,31.0989728 L58.7745098,31.0989728 C58.5724897,30.9260821 58.2501486,30.8396368 57.8074867,30.8396368 L57.8074867,30.8396368 Z" id="Shape"></path>
                </g>
            </g>
        </g>
    </g>
</svg>