<?xml version="1.0" encoding="UTF-8"?>
<svg width="300px" height="41px" viewBox="0 0 300 41" version="1.1" xmlns="http://www.w3.org/2000/svg" xmlns:xlink="http://www.w3.org/1999/xlink">
    <!-- Generator: Sketch 53.2 (72643) - https://sketchapp.com -->
    <title>melia_hotels_international</title>
    <desc>Created with Sketch.</desc>
    <defs>
        <polygon id="path-1" points="0 0.378322581 299.832101 0.378322581 299.832101 31.9690323 0 31.9690323"></polygon>
    </defs>
    <g id="Page-1" stroke="none" stroke-width="1" fill="none" fill-rule="evenodd">
        <g id="02---Sobre" transform="translate(-157.000000, -735.000000)">
            <g id="Group" transform="translate(157.000000, 735.000000)">
                <g id="melia_hotels_international">
                    <path d="M129.00834,6.39795918 C128.879933,2.45999655 130.246722,0.582485091 132.251219,0.582485091 C133.403516,0.582485091 134.255715,1.00811075 135.023272,1.52309137 C135.748026,1.99207268 136.388619,2.41346852 136.942644,2.41346852 C137.669803,2.41346852 137.923732,1.99207268 138.093498,0.397959184 L140.995882,0.397959184 C141.081006,4.4776208 139.842624,6.11773359 137.625558,6.11773359 C136.47278,6.11773359 135.620581,5.69739521 134.853505,5.22788516 C134.084987,4.75784639 133.573282,4.38139239 132.976454,4.38139239 C132.421466,4.38139239 132.03865,5.03860071 131.952083,6.39795918 L129.00834,6.39795918" id="Fill-1" fill="#868982"></path>
                    <polyline id="Fill-2" fill="#868982" points="168.481479 10.3979592 170 10.3979592 170 21.3979592 168.481479 21.3979592 168.481479 16.6096885 162.519004 16.6096885 162.519004 21.3979592 161 21.3979592 161 10.3979592 162.519004 10.3979592 162.519004 15.1546753 168.481479 15.1546753 168.481479 10.3979592"></polyline>
                    <path d="M180.533305,11.8564553 C179.36227,11.8564553 178.400381,12.2392678 177.647173,13.0073342 C176.892568,13.7749123 176.515266,14.7539162 176.515266,15.9472756 C176.515266,17.1045022 176.894432,18.0659279 177.650434,18.8339943 C178.406902,19.6010842 179.353419,19.9873147 180.489519,19.9873147 C181.631209,19.9873147 182.583781,19.5927834 183.345374,18.8115334 C184.109761,18.027842 184.492187,17.0537209 184.492187,15.8857522 C184.492187,14.7504982 184.109761,13.7939553 183.345374,13.0180764 C182.583781,12.2441506 181.645649,11.8564553 180.533305,11.8564553 Z M180.473682,10.3979592 C182.055092,10.3979592 183.371459,10.9223732 184.423714,11.9712014 C185.474571,13.0210061 186,14.3359475 186,15.9170022 C186,17.4975686 185.468982,18.8066506 184.408342,19.84376 C183.346771,20.8798928 182.009443,21.3979592 180.394495,21.3979592 C178.85361,21.3979592 177.568918,20.8798928 176.541817,19.84376 C175.514249,18.8066506 175,17.5083107 175,15.9472756 C175,14.3466897 175.51751,13.0210061 176.55253,11.9712014 C177.585687,10.9223732 178.893203,10.3979592 180.473682,10.3979592 L180.473682,10.3979592 Z" id="Fill-3" fill="#868982"></path>
                    <polyline id="Fill-4" fill="#868982" points="187 10.3979592 196 10.3979592 196 11.7972772 192.244276 11.7972772 192.244276 21.3979592 190.694396 21.3979592 190.694396 11.7972772 187 11.7972772 187 10.3979592"></polyline>
                    <polyline id="Fill-5" fill="#868982" points="199 10.3979592 205.838052 10.3979592 205.838052 11.8014248 200.727629 11.8014248 200.727629 15.1616163 205.663477 15.1616163 205.663477 16.5716026 200.727629 16.5716026 200.727629 19.993992 206 19.993992 206 21.3979592 199 21.3979592 199 10.3979592"></polyline>
                    <polyline id="Fill-6" fill="#868982" points="208 10.3979592 209.691192 10.3979592 209.691192 19.9654849 215 19.9654849 215 21.3979592 208 21.3979592 208 10.3979592"></polyline>
                    <path d="M221.697879,16.7759543 L220.347447,16.0639739 C219.500605,15.6189861 218.898218,15.1783993 218.539721,14.7436805 C218.181789,14.3123846 218,13.8136071 218,13.2488149 C218,12.4028492 218.340995,11.7172746 219.019034,11.1886682 C219.696508,10.6595729 220.577789,10.3979592 221.661747,10.3979592 C222.696024,10.3979592 223.647875,10.6497929 224.510525,11.1529714 L224.510525,12.8967367 C223.617388,12.1534604 222.657069,11.7818223 221.625615,11.7818223 C221.04581,11.7818223 220.569885,11.8972257 220.195016,12.1294995 C219.82184,12.3598174 219.636664,12.6581059 219.636664,13.0214311 C219.636664,13.3431915 219.774417,13.643925 220.049359,13.9250985 C220.323171,14.2048051 220.765223,14.4991817 221.374385,14.8096951 L222.729898,15.5035827 C224.244052,16.2859787 225,17.2815778 225,18.4933137 C225,19.3534604 224.666909,20.0522379 224.000726,20.5916022 C223.335672,21.1290105 222.46907,21.3979592 221.402049,21.3979592 C220.178079,21.3979592 219.060811,21.0717978 218.055327,20.4199641 L218.055327,18.4664188 C219.014517,19.5192306 220.12501,20.0449029 221.386805,20.0449029 C221.942899,20.0449029 222.40471,19.9094506 222.775063,19.642947 C223.14485,19.3730203 223.331156,19.038546 223.331156,18.635612 C223.331156,17.9823113 222.785789,17.3612844 221.697879,16.7759543" id="Fill-7" fill="#868982"></path>
                    <polygon id="Fill-8" fill="#868982" points="160 37.3979592 162 37.3979592 162 26.3979592 160 26.3979592"></polygon>
                    <polyline id="Fill-9" fill="#868982" points="173.532737 26.3979592 175 26.3979592 175 37.3979592 173.671353 37.3979592 166.4535 28.9259406 166.4535 37.3979592 165 37.3979592 165 26.3979592 166.250983 26.3979592 173.532737 34.9426065 173.532737 26.3979592"></polyline>
                    <polyline id="Fill-10" fill="#868982" points="179 26.3979592 188 26.3979592 188 27.7983411 184.243909 27.7983411 184.243909 37.3979592 182.694282 37.3979592 182.694282 27.7983411 179 27.7983411 179 26.3979592"></polyline>
                    <polyline id="Fill-11" fill="#868982" points="191 26.3979592 197.836379 26.3979592 197.836379 27.8019264 192.726802 27.8019264 192.726802 31.1596099 197.663974 31.1596099 197.663974 32.5716026 192.726802 32.5716026 192.726802 35.9929888 198 35.9929888 198 37.3979592 191 37.3979592 191 26.3979592"></polyline>
                    <path d="M201.931963,27.7358309 L201.485471,27.7358309 L201.485471,31.2089878 L202.0515,31.2089878 C202.80274,31.2089878 203.320104,31.1398653 203.599811,31.0036238 C203.878101,30.8668814 204.09733,30.6615173 204.253248,30.3860289 C204.408694,30.1080361 204.48807,29.795983 204.48807,29.4443596 C204.48807,29.0987469 204.400189,28.7841893 204.22679,28.5021894 C204.053863,28.2246975 203.810064,28.0248432 203.494921,27.9091381 C203.180723,27.7924312 202.659579,27.7358309 201.931963,27.7358309 Z M200,37.3979592 L200,26.3979592 L202.599102,26.3979592 C203.649894,26.3979592 204.483818,26.6734475 205.099457,27.2244243 C205.715568,27.7759019 206.024569,28.5227258 206.024569,29.4598871 C206.024569,30.1010237 205.872903,30.6550058 205.571935,31.1213324 C205.268604,31.5886609 204.836286,31.9382807 204.271202,32.1701918 C204.603827,32.3995985 204.927947,32.7151579 205.24498,33.1138647 C205.56154,33.5135732 206.00756,34.2093066 206.581621,35.2010647 C206.942594,35.8251711 207.233168,36.2945031 207.450035,36.6110642 L208,37.3979592 L206.231987,37.3979592 L205.78077,36.6726734 C205.765651,36.6456255 205.735885,36.60305 205.690999,36.5399381 L205.40137,36.1066701 L204.940704,35.3012423 L204.444602,34.4447239 C204.137491,33.9924221 203.857784,33.6322837 203.602173,33.3648095 C203.345618,33.0968345 203.115521,32.9049944 202.910465,32.7862839 C202.70352,32.6700779 202.359083,32.6104723 201.871013,32.6104723 L201.485471,32.6104723 L201.485471,37.3979592 L200,37.3979592 L200,37.3979592 Z" id="Fill-12" fill="#868982"></path>
                    <polyline id="Fill-13" fill="#868982" points="219.531132 26.3979592 221 26.3979592 221 37.3979592 219.670696 37.3979592 212.452651 28.9259406 212.452651 37.3979592 211 37.3979592 211 26.3979592 212.251659 26.3979592 219.531132 34.9426065 219.531132 26.3979592"></polyline>
                    <path d="M231.538873,32.7637068 L229.890429,28.8007388 L228.362025,32.7637068 L231.538873,32.7637068 Z M229.390732,26.3979592 L230.417578,26.3979592 L235,37.3979592 L233.501373,37.3979592 L232.14093,34.157568 L227.780905,34.157568 L226.50328,37.3979592 L225,37.3979592 L229.390732,26.3979592 L229.390732,26.3979592 Z" id="Fill-14" fill="#868982"></path>
                    <polyline id="Fill-15" fill="#868982" points="235 26.3979592 244 26.3979592 244 27.7983411 240.245014 27.7983411 240.245014 37.3979592 238.69515 37.3979592 238.69515 27.7983411 235 27.7983411 235 26.3979592"></polyline>
                    <polygon id="Fill-16" fill="#868982" points="247 37.3979592 249 37.3979592 249 26.3979592 247 26.3979592"></polygon>
                    <path d="M257.532616,27.8563905 C256.361233,27.8563905 255.39906,28.2396743 254.645629,29.0077066 C253.891732,29.7757389 253.515249,30.7556759 253.515249,31.9475175 C253.515249,33.1032279 253.891732,34.0665641 254.647958,34.8345964 C255.403719,35.6021405 256.351449,35.9844477 257.489283,35.9844477 C258.63038,35.9844477 259.581371,35.5933518 260.345053,34.8116482 C261.109666,34.0265268 261.490808,33.0548903 261.490808,31.8869733 C261.490808,30.7493285 261.109666,29.7942928 260.345053,29.0184483 C259.581371,28.2430921 258.644358,27.8563905 257.532616,27.8563905 Z M257.474839,26.3979592 C259.055786,26.3979592 260.371145,26.9213734 261.421849,27.9721081 C262.475347,29.0213779 263,30.3367492 263,31.9167572 C263,33.4982299 262.469756,34.8062774 261.407404,35.8433407 C260.348314,36.8789393 259.00826,37.3979592 257.394231,37.3979592 C255.851491,37.3979592 254.566418,36.8789393 253.539012,35.8433407 C252.512072,34.8062774 252,33.5094599 252,31.9475175 C252,30.3460261 252.5158,29.0213779 253.550195,27.9721081 C254.584124,26.9213734 255.89296,26.3979592 257.474839,26.3979592 L257.474839,26.3979592 Z" id="Fill-17" fill="#868982"></path>
                    <polyline id="Fill-18" fill="#868982" points="275.531609 26.3979592 277 26.3979592 277 37.3979592 275.670731 37.3979592 268.453151 28.9259406 268.453151 37.3979592 267 37.3979592 267 26.3979592 268.252581 26.3979592 275.531609 34.9426065 275.531609 26.3979592"></polyline>
                    <path d="M286.537441,32.7637068 L284.887606,28.8007388 L283.360637,32.7637068 L286.537441,32.7637068 Z M284.386839,26.3979592 L285.417229,26.3979592 L290,37.3979592 L288.50235,37.3979592 L287.139666,34.157568 L282.779355,34.157568 L281.504165,37.3979592 L280,37.3979592 L284.386839,26.3979592 L284.386839,26.3979592 Z" id="Fill-19" fill="#868982"></path>
                    <g id="Group-23" transform="translate(0.000000, 8.397959)">
                        <mask id="mask-2" fill="white">
                            <use xlink:href="#path-1"></use>
                        </mask>
                        <g id="Clip-21"></g>
                        <polyline id="Fill-20" fill="#868982" mask="url(#mask-2)" points="293.261345 18.6849032 294.847059 18.6849032 294.847059 28.5429677 299.832101 28.5429677 299.832101 30.0196129 293.261345 30.0196129 293.261345 18.6849032"></polyline>
                        <polyline id="Fill-22" fill="#868982" mask="url(#mask-2)" points="0 30.7029677 5.79932773 0.378322581 15.2576471 22.299871 25.0557983 0.378322581 30.2672269 30.7029677 26.0011765 30.7029677 23.342521 13.6784516 15.1860504 32 7.26403361 13.6583226 4.30134454 30.7029677 0 30.7029677"></polyline>
                    </g>
                    <polyline id="Fill-24" fill="#868982" points="61 14.5111747 50.1025301 14.5111747 50.1025301 21.4788588 60.6821633 21.4788588 60.6821633 25.5931356 50.1025301 25.5931356 50.1025301 35.2831517 61 35.2831517 61 39.3979592 46 39.3979592 46 10.3979592 61 10.3979592 61 14.5111747"></polyline>
                    <polyline id="Fill-25" fill="#868982" points="82.0695867 10.3979592 82.0695867 35.2831517 90 35.2831517 90 39.3979592 78 39.3979592 78 10.3979592 82.0695867 10.3979592"></polyline>
                    <polygon id="Fill-26" fill="#868982" points="104 39.3979592 108 39.3979592 108 10.3979592 104 10.3979592"></polygon>
                    <path d="M138.789599,28.538829 L134.671015,18.9405025 L130.353718,28.538829 L138.789599,28.538829 Z M140.499238,32.5428233 L128.609012,32.5428233 L125.514484,39.3979592 L121,39.3979592 L134.743181,9.39795918 L148,39.3979592 L143.412841,39.3979592 L140.499238,32.5428233 L140.499238,32.5428233 Z" id="Fill-27" fill="#868982"></path>
                </g>
            </g>
        </g>
    </g>
</svg>