<?xml version="1.0" encoding="UTF-8"?>
<svg width="59px" height="60px" viewBox="0 0 59 60" version="1.1" xmlns="http://www.w3.org/2000/svg" xmlns:xlink="http://www.w3.org/1999/xlink">
    <!-- Generator: Sketch 53.2 (72643) - https://sketchapp.com -->
    <title>gen-jigsaw</title>
    <desc>Created with Sketch.</desc>
    <g id="Page-1" stroke="none" stroke-width="1" fill="none" fill-rule="evenodd">
        <g id="01---Home" transform="translate(-682.000000, -446.000000)" fill="#BD1F1F" fill-rule="nonzero">
            <g id="Group-2" transform="translate(0.000000, 399.000000)">
                <g id="Group" transform="translate(682.000000, 47.000000)">
                    <g id="gen-jigsaw">
                        <path d="M29.8086937,59.1910429 C30.2206364,59.6029857 30.8864876,59.6029857 31.2984304,59.1910429 L38.2024223,52.287051 C39.2222703,56.4233355 42.9634691,59.4997366 47.4105544,59.4997366 C52.6383291,59.4997366 56.8926126,55.2454532 56.8926126,50.0176784 C56.8926126,45.5705931 53.8162115,41.8293944 49.679927,40.8095463 L58.6910429,31.7984304 C59.1029857,31.3864876 59.1029857,30.7206364 58.6910429,30.3086937 L48.1554227,19.7730735 C47.8530504,19.4707012 47.4010723,19.3811484 47.0070401,19.5444505 C46.6130079,19.7077526 46.3569923,20.0923027 46.3569923,20.5179418 C46.3569923,24.5846912 43.0488076,27.892876 38.9820582,27.892876 C34.9153088,27.892876 31.607124,24.5846912 31.607124,20.5179418 C31.607124,16.4511924 34.9153088,13.1430077 38.9820582,13.1430077 C39.4076973,13.1430077 39.7922474,12.8859385 39.9555495,12.4929599 C40.1188516,12.0989277 40.0282453,11.645896 39.7269265,11.3445773 L29.1913063,0.808957063 C28.7793636,0.397014312 28.1135124,0.397014312 27.7015696,0.808957063 L0.308957063,28.2015696 C-0.102985688,28.6135124 -0.102985688,29.2793636 0.308957063,29.6913063 L29.8086937,59.1910429 L29.8086937,59.1910429 Z M28.446438,3.04356211 L36.7126856,11.3098097 C32.5764011,12.3296578 29.5,16.0708565 29.5,20.5179418 C29.5,25.7457166 33.7542834,30 38.9820582,30 C43.4291435,30 47.1703422,26.9235989 48.1901903,22.7873144 L56.4564379,31.053562 L46.665686,40.8443139 C46.3643673,41.1456326 46.2737609,41.5986643 46.4370631,41.9926965 C46.6003652,42.3867287 46.9849153,42.6427443 47.4105544,42.6427443 C51.4773038,42.6427443 54.7854885,45.950929 54.7854885,50.0176784 C54.7854885,54.0844278 51.4773038,57.3926126 47.4105544,57.3926126 C43.343805,57.3926126 40.0356202,54.0844278 40.0356202,50.0176784 C40.0356202,49.5920394 39.7785511,49.2074892 39.3855725,49.0441871 C39.2549308,48.9904554 39.1179677,48.9641164 38.9820582,48.9641164 C38.7081321,48.9641164 38.4384202,49.0715797 38.2371898,49.2728101 L30.553562,56.9564379 L2.54356211,28.946438 L28.446438,3.04356211 L28.446438,3.04356211 Z" id="Shape"></path>
                    </g>
                </g>
            </g>
        </g>
    </g>
</svg>