<?xml version="1.0" encoding="UTF-8"?>
<svg width="60px" height="45px" viewBox="0 0 60 45" version="1.1" xmlns="http://www.w3.org/2000/svg" xmlns:xlink="http://www.w3.org/1999/xlink">
    <!-- Generator: Sketch 53.2 (72643) - https://sketchapp.com -->
    <title>icon</title>
    <desc>Created with Sketch.</desc>
    <g id="Page-1" stroke="none" stroke-width="1" fill="none" fill-rule="evenodd">
        <g id="01---Home" transform="translate(-42.000000, -447.000000)" fill="#BD1F1F" fill-rule="nonzero">
            <g id="Group-2" transform="translate(0.000000, 399.000000)">
                <g id="diferencial" transform="translate(42.000000, 48.000000)">
                    <g id="icon">
                        <path d="M40,16.3555556 C40,10.7190222 35.514,6.13333333 30,6.13333333 C24.486,6.13333333 20,10.7190222 20,16.3555556 C20,20.1316444 22.019,23.4283111 25.006,25.1988 C16.732,27.3740889 10.488,34.8015556 10.027,43.9024 C9.998,44.4666667 10.422,44.9460889 10.974,44.9767556 C11.523,45.0094667 11.996,44.5719556 12.024,44.0087111 C12.521,34.2342222 20.416,26.5777778 30,26.5777778 C39.584,26.5777778 47.479,34.2342222 47.976,44.0087111 C48.003,44.5545778 48.445,44.9777778 48.974,44.9777778 C48.992,44.9777778 49.009,44.9777778 49.027,44.9767556 C49.579,44.9471111 50.003,44.4666667 49.974,43.9024 C49.512,34.8015556 43.269,27.3730667 34.995,25.1988 C37.981,23.4283111 40,20.1316444 40,16.3555556 L40,16.3555556 Z M30,24.5333333 C25.589,24.5333333 22,20.8645778 22,16.3555556 C22,11.8465333 25.589,8.17777778 30,8.17777778 C34.411,8.17777778 38,11.8465333 38,16.3555556 C38,20.8645778 34.411,24.5333333 30,24.5333333 L30,24.5333333 Z" id="Shape"></path>
                        <path d="M17,18.4 C17.552,18.4 18,17.9430667 18,17.3777778 C18,16.8124889 17.552,16.3555556 17,16.3555556 C13.14,16.3555556 10,13.1447556 10,9.2 C10,5.25524444 13.14,2.04444444 17,2.04444444 C19.33,2.04444444 21.5,3.22408889 22.805,5.20004444 C23.114,5.6672 23.736,5.79088889 24.193,5.47604444 C24.651,5.15915556 24.771,4.52435556 24.462,4.05617778 C22.785,1.51595556 19.995,0 17,0 C12.038,0 8,4.12671111 8,9.2 C8,12.5181333 9.733,15.4232889 12.317,17.0414667 C5.216,19.1268 0,25.8131556 0,33.7333333 C0,34.2986222 0.448,34.7555556 1,34.7555556 C1.552,34.7555556 2,34.2986222 2,33.7333333 C2,25.2785333 8.729,18.4 17,18.4 L17,18.4 Z" id="Shape"></path>
                        <path d="M47.683,17.0414667 C50.267,15.4232889 52,12.5181333 52,9.2 C52,4.12671111 47.962,0 43,0 C39.952,0 37.134,1.55888889 35.462,4.16964444 C35.16,4.64293333 35.289,5.27568889 35.752,5.58542222 C36.214,5.89413333 36.833,5.76226667 37.136,5.29 C38.436,3.25782222 40.629,2.04444444 43,2.04444444 C46.86,2.04444444 50,5.25524444 50,9.2 C50,13.1447556 46.86,16.3555556 43,16.3555556 C42.448,16.3555556 42,16.8124889 42,17.3777778 C42,17.9430667 42.448,18.4 43,18.4 C51.271,18.4 58,25.2785333 58,33.7333333 C58,34.2986222 58.448,34.7555556 59,34.7555556 C59.552,34.7555556 60,34.2986222 60,33.7333333 C60,25.8131556 54.784,19.1268 47.683,17.0414667 L47.683,17.0414667 Z" id="Shape"></path>
                    </g>
                </g>
            </g>
        </g>
    </g>
</svg>