<?xml version="1.0" encoding="UTF-8"?>
<svg width="54px" height="60px" viewBox="0 0 54 60" version="1.1" xmlns="http://www.w3.org/2000/svg" xmlns:xlink="http://www.w3.org/1999/xlink">
    <!-- Generator: Sketch 53.2 (72643) - https://sketchapp.com -->
    <title>use-fem-secure</title>
    <desc>Created with Sketch.</desc>
    <g id="Page-1" stroke="none" stroke-width="1" fill="none" fill-rule="evenodd">
        <g id="01---Home" transform="translate(-362.000000, -448.000000)" fill="#BD1F1F" fill-rule="nonzero">
            <g id="Group-2" transform="translate(0.000000, 399.000000)">
                <g id="Group" transform="translate(362.000000, 49.000000)">
                    <g id="use-fem-secure">
                        <path d="M53.0357143,42.8571429 L51.1071429,42.8571429 L51.1071429,40.7142857 C51.1071429,35.9882143 47.6463214,32.1428571 43.3928571,32.1428571 C39.1393929,32.1428571 35.6785714,35.9882143 35.6785714,40.7142857 L35.6785714,42.8571429 L33.75,42.8571429 C33.21675,42.8571429 32.7857143,43.3360714 32.7857143,43.9285714 L32.7857143,58.9285714 C32.7857143,59.5210714 33.21675,60 33.75,60 L53.0357143,60 C53.5689643,60 54,59.5210714 54,58.9285714 L54,43.9285714 C54,43.3360714 53.5689643,42.8571429 53.0357143,42.8571429 L53.0357143,42.8571429 Z M37.6071429,40.7142857 C37.6071429,37.1689286 40.2020357,34.2857143 43.3928571,34.2857143 C46.5836786,34.2857143 49.1785714,37.1689286 49.1785714,40.7142857 L49.1785714,42.8571429 L37.6071429,42.8571429 L37.6071429,40.7142857 L37.6071429,40.7142857 Z M52.0714286,57.8571429 L34.7142857,57.8571429 L34.7142857,45 L52.0714286,45 L52.0714286,57.8571429 L52.0714286,57.8571429 Z" id="Shape"></path>
                        <path d="M43.3928571,47.1428571 C42.32925,47.1428571 41.4642857,48.1039286 41.4642857,49.2857143 C41.4642857,50.0753571 41.8548214,50.7589286 42.4285714,51.1307143 L42.4285714,54.6428571 C42.4285714,55.2353571 42.8596071,55.7142857 43.3928571,55.7142857 C43.9261071,55.7142857 44.3571429,55.2353571 44.3571429,54.6428571 L44.3571429,51.1307143 C44.9308929,50.7589286 45.3214286,50.0753571 45.3214286,49.2857143 C45.3214286,48.1039286 44.4564643,47.1428571 43.3928571,47.1428571 L43.3928571,47.1428571 Z" id="Shape"></path>
                        <path d="M9.46157143,48.1296429 C12.1075714,51.1832143 21.2625,51.4285714 24.1071429,51.4285714 C24.7946786,51.4285714 27.2478214,51.4060714 29.9825357,51.1082143 C30.5119286,51.0503571 30.8995714,50.5264286 30.8475,49.9371429 C30.7954286,49.3478571 30.3364286,48.9214286 29.7935357,48.9760714 C27.1465714,49.2632143 24.7715357,49.2857143 24.1071429,49.2857143 C18.3156429,49.2857143 11.8645714,48.3257143 10.73925,46.4925 C10.5733929,46.2225 10.3053214,46.0510714 10.0121786,46.0275 C5.19557143,45.6428571 2.05103571,44.4385714 1.93242857,42.945 C3.51,34.4046429 8.60528571,31.7817857 16.8354643,30.5346429 L15.4430357,39.4596429 C15.3871071,39.8164286 15.498,40.1807143 15.7371429,40.4271429 C15.9174643,40.6135714 16.1517857,40.7142857 16.3928571,40.7142857 C16.4709643,40.7142857 16.5490714,40.7035714 16.6262143,40.6821429 L24.1071429,38.6057143 L31.5880714,40.6821429 C31.9033929,40.7721429 32.2389643,40.6746429 32.4781071,40.4282143 C32.71725,40.1828571 32.8271786,39.8185714 32.7722143,39.4607143 L31.38075,30.5325 C33.7239643,30.8903571 35.6149286,31.3328571 37.2474643,31.9071429 C37.7575714,32.0882143 38.2975714,31.7721429 38.4576429,31.2096429 C38.6186786,30.6460714 38.3371071,30.0439286 37.8298929,29.865 C35.7894643,29.1460714 33.4028571,28.6242857 30.3152143,28.2203571 C30.2477143,28.2128571 30.1840714,28.2321429 30.1175357,28.2321429 C30.0924643,28.2342857 30.0683571,28.2246429 30.0423214,28.23 C30.0355714,28.2310714 30.0297857,28.2364286 30.0230357,28.2385714 C29.28825,28.2760714 28.6113214,28.7496429 28.3191429,29.5135714 C26.8389643,33.3953571 24.7705714,36.3385714 24.1158214,36.4296429 C23.4456429,36.3364286 21.3782143,33.3910714 19.8961071,29.5135714 C19.6058571,28.7507143 18.93375,28.2782143 18.1960714,28.2396429 C18.1883571,28.2375 18.1825714,28.2321429 18.1738929,28.23 C18.144,28.2246429 18.117,28.2353571 18.0871071,28.2332143 C18.0225,28.2332143 17.9607857,28.2139286 17.8961786,28.2214286 C8.23307143,29.4857143 1.87167857,32.3389286 0.0192857143,42.6492857 C0.00675,42.7178571 0,42.7885714 0,42.8582143 C0,45.7907143 3.18310714,47.565 9.46157143,48.1296429 L9.46157143,48.1296429 Z M29.5862143,31.5792857 L30.6189643,38.2039286 L26.4542143,37.0478571 C27.7839643,35.4685714 28.95075,33.0439286 29.5862143,31.5792857 L29.5862143,31.5792857 Z M21.7629643,37.0467857 L17.5962857,38.2039286 L18.63,31.5782143 C19.2664286,33.0428571 20.4332143,35.4675 21.7629643,37.0467857 L21.7629643,37.0467857 Z" id="Shape"></path>
                        <path d="M24.1071429,0 C17.5557857,0 13.5,6.11785714 13.5,11.7857143 L13.5,13.9285714 C13.5,19.7892857 11.6717143,21.1896429 10.6910357,21.9417857 C10.2243214,22.2996429 9.64285714,22.7453571 9.64285714,23.5714286 C9.64285714,26.2275 18.0668571,27.8571429 24.1071429,27.8571429 C30.0191786,27.8571429 38.5714286,26.3303571 38.5714286,23.5714286 C38.5714286,22.7175 37.9986429,22.2739286 37.4933571,21.8817857 C36.5223214,21.1275 34.7142857,19.725 34.7142857,13.9285714 L34.7142857,11.7857143 C34.7142857,6.11785714 30.6585,0 24.1071429,0 L24.1071429,0 Z M24.1071429,25.7142857 C22.2865714,25.7142857 19.7042143,24.9128571 18.2982857,17.9785714 C18.1989643,17.49 17.8084286,17.1428571 17.3571429,17.1428571 C16.4246786,17.1428571 15.4285714,16.5803571 15.4285714,15 L15.4285714,12.8571429 L20.25,12.8571429 C20.6154643,12.8571429 20.9491071,12.6278571 21.1130357,12.2646429 L22.1785714,9.89571429 L23.2441071,12.2646429 C23.4080357,12.6278571 23.7416786,12.8571429 24.1071429,12.8571429 L32.7857143,12.8571429 L32.7857143,15 C32.7857143,16.4807143 31.8166071,17.1428571 30.8571429,17.1428571 C30.4058571,17.1428571 30.0153214,17.49 29.916,17.9785714 C28.5091071,24.9128571 25.9277143,25.7142857 24.1071429,25.7142857 L24.1071429,25.7142857 Z M24.1071429,2.14285714 C29.0558571,2.14285714 32.25825,6.41035714 32.7211071,10.7142857 L24.7030714,10.7142857 L23.0406429,7.02107143 C22.7127857,6.29464286 21.6433929,6.29464286 21.3155357,7.02107143 L19.6540714,10.7142857 L15.4893214,10.7142857 C15.9357857,6.33535714 19.0841786,2.14285714 24.1071429,2.14285714 L24.1071429,2.14285714 Z M14.9801786,18.4553571 C15.4343571,18.8271429 15.9695357,19.0960714 16.5808929,19.2139286 C17.2009286,21.9128571 18.0928929,23.9764286 19.2423214,25.4153571 C15.6493929,24.9642857 13.1133214,24.1028571 12.015,23.5296429 C12.9108214,22.8246429 14.2801071,21.5496429 14.9801786,18.4553571 L14.9801786,18.4553571 Z M36.2629286,23.5403571 C35.1829286,24.1425 32.5581429,24.9825 28.9652143,25.4207143 C30.1185,23.9807143 31.0133571,21.9117857 31.6353214,19.2042857 C32.211,19.0832143 32.7596786,18.8196429 33.2341071,18.4317857 C33.9553929,21.6075 35.3863929,22.8535714 36.2629286,23.5403571 L36.2629286,23.5403571 Z" id="Shape"></path>
                    </g>
                </g>
            </g>
        </g>
    </g>
</svg>