<?xml version="1.0" encoding="UTF-8"?>
<svg width="30px" height="30px" viewBox="0 0 30 30" version="1.1" xmlns="http://www.w3.org/2000/svg" xmlns:xlink="http://www.w3.org/1999/xlink">
    <!-- Generator: Sketch 53.2 (72643) - https://sketchapp.com -->
    <title>bra-twitter</title>
    <desc>Created with Sketch.</desc>
    <g id="Symbols" stroke="none" stroke-width="1" fill="none" fill-rule="evenodd">
        <g id="footer" transform="translate(-467.000000, -98.000000)" fill="#000000" fill-rule="nonzero">
            <g id="social-medias">
                <g transform="translate(407.000000, 98.000000)">
                    <g id="bra-twitter" transform="translate(60.000000, 0.000000)">
                        <path d="M15,0 C6.72888889,0 0,6.72888889 0,15 C0,23.2711111 6.72888889,30 15,30 C23.2711111,30 30,23.2711111 30,15 C30,6.72888889 23.2711111,0 15,0 L15,0 Z M15,28.8888889 C7.34166667,28.8888889 1.11111111,22.6583333 1.11111111,15 C1.11111111,7.34166667 7.34166667,1.11111111 15,1.11111111 C22.6583333,1.11111111 28.8888889,7.34166667 28.8888889,15 C28.8888889,22.6583333 22.6583333,28.8888889 15,28.8888889 L15,28.8888889 Z" id="Shape"></path>
                        <path d="M24.1722222,8.06555556 C23.4138889,8.51611111 22.5727778,8.84333333 21.6777778,9.01833333 C20.9605556,8.25444444 19.9405556,7.77833333 18.8111111,7.77833333 C16.6411111,7.77833333 14.8822222,9.53722222 14.8822222,11.7061111 C14.8822222,12.0122222 14.9183333,12.3138889 14.9855556,12.6 C11.7205556,12.435 8.82555556,10.8727778 6.88888889,8.49611111 C6.55166667,9.07777778 6.35833333,9.75277778 6.35833333,10.47 C6.35833333,11.8338889 7.04944444,13.0361111 8.105,13.7394444 C7.46166667,13.72 6.855,13.5427778 6.32444444,13.2488889 L6.32444444,13.2988889 C6.32444444,15.2022222 7.67888889,16.7883333 9.47555556,17.15 C9.14555556,17.2377778 8.79833333,17.2855556 8.44277778,17.2855556 C8.18888889,17.2855556 7.94277778,17.2627778 7.70277778,17.2172222 C8.20277778,18.7777778 9.65388889,19.9116667 11.3716667,19.9427778 C10.0272222,20.9955556 8.33444444,21.6244444 6.49444444,21.6244444 C6.17666667,21.6244444 5.86277778,21.6061111 5.55666667,21.5688889 C7.29388889,22.6822222 9.35888889,23.3333333 11.5777778,23.3333333 C18.8033333,23.3333333 22.7538889,17.35 22.7538889,12.1594444 C22.7538889,11.99 22.7483333,11.82 22.7422222,11.6527778 C23.5105556,11.0994444 24.1755556,10.4083333 24.7016667,9.61833333 C23.9983333,9.93166667 23.24,10.1422222 22.445,10.2377778 C23.255,9.75277778 23.8777778,8.98222222 24.1722222,8.06555556 L24.1722222,8.06555556 Z" id="Shape"></path>
                    </g>
                </g>
            </g>
        </g>
    </g>
</svg>